<?xml version="1.0" encoding="utf-8"?>
<!-- Generator: Adobe Illustrator 16.0.0, SVG Export Plug-In . SVG Version: 6.00 Build 0)  -->
<!DOCTYPE svg PUBLIC "-//W3C//DTD SVG 1.1//EN" "http://www.w3.org/Graphics/SVG/1.1/DTD/svg11.dtd">
<svg version="1.1" xmlns="http://www.w3.org/2000/svg" xmlns:xlink="http://www.w3.org/1999/xlink" x="0px" y="0px" width="1345px"
	 height="764px" viewBox="0 0 1345 764" enable-background="new 0 0 1345 764" xml:space="preserve">
<g id="Layer_1">
</g>
<g id="Layer_2">
	<g>
		<g>
			<path fill="#161B47" stroke="#00A14B" stroke-miterlimit="10" d="M1340.144,657.721c0,54.829-44.451,99.279-99.283,99.279
				H104.128c-54.831,0-99.273-44.45-99.273-99.279l0,0c0-54.811,44.442-99.263,99.273-99.263H1240.86
				C1295.692,558.458,1340.144,602.91,1340.144,657.721L1340.144,657.721z"/>
			<g>
				<path fill="#CCCACC" d="M52.263,615.737v83.515c-4.59,0.155-10.135,0.483-16.634,0.947v-1.425
					c6.756-1.841,10.145-9.004,10.145-21.472v-41.274c0-10.986-3.389-17.591-10.145-19.809v-1.428
					C41.122,615.326,46.667,615.636,52.263,615.737z M58.126,699.252v-83.515l13.55-0.945c6.715,0,12.045,2.091,16.009,6.248
					c3.913,4.232,5.864,9.605,5.864,16.087c0,8.141-3.542,14.007-10.619,17.59c11.409,2.6,17.118,10.019,17.118,22.279
					c0,6.171-1.874,11.599-5.629,16.238c-3.803,4.643-9.935,6.965-18.385,6.965c-3.111,0-6.494-0.184-10.135-0.539
					C62.625,699.381,60.036,699.252,58.126,699.252z M64.627,637.378v15.911h6.105c5.072,0,8.974-1.358,11.727-4.107
					c2.74-2.75,4.118-6.703,4.118-11.881c0-5.35-1.479-9.403-4.437-12.208c-2.958-2.753-6.5-4.13-10.618-4.13
					c-2.269,0-4.092,0.56-5.468,1.679C65.099,625.479,64.627,630.396,64.627,637.378z M72.555,658.922h-7.928v14.275
					c0,9.97,1.082,16.29,3.25,18.921c1.849,1.426,4.626,2.14,8.324,2.14c6.181,0,10.591-1.785,13.231-5.381
					c2.536-3.596,3.798-7.799,3.798-12.596c0-3.866-0.817-7.161-2.454-9.912c-1.689-2.805-3.804-4.744-6.341-5.865
					C81.745,659.457,77.781,658.922,72.555,658.922z M94.658,652.191c3.223-4.23,4.832-9.251,4.832-15.064
					c0-4.59-0.895-8.717-2.69-12.353c-1.849-3.759-3.991-6.259-6.422-7.532c5.237,1.119,9.25,3.362,12.044,6.73
					c2.803,3.44,4.205,7.24,4.205,11.418c0,3.697-1.16,7.191-3.492,10.454C100.813,649.029,97.984,651.134,94.658,652.191z
					 M98.622,697.034c4.856-5.123,7.291-11.675,7.291-19.653c0-8.543-2.536-15.475-7.609-20.754
					c10.035,3.646,15.054,10.352,15.054,20.119c0,4.814-1.401,9.098-4.195,12.843C106.358,693.338,102.845,695.815,98.622,697.034z"
					/>
				<path fill="#CCCACC" d="M148.938,623.182c-5.811,8.997-8.71,20.472-8.71,34.467c0,12.692,2.769,23.682,8.315,32.963
					c-10.669-7.012-16-18.277-16-33.752C132.543,640.975,138.005,629.734,148.938,623.182z M215.659,657.11
					c0,9.715-1.479,17.925-4.44,24.629c-2.904,6.652-6.999,11.574-12.276,14.736c-5.176,3.234-11.229,4.841-18.149,4.841
					c-10.988,0-19.491-3.925-25.508-11.804c-6.028-7.877-9.037-18.709-9.037-32.481c0-14.322,3.059-25.311,9.19-32.98
					c6.131-7.549,14.53-11.322,25.2-11.322c10.823,0,19.386,3.773,25.671,11.322C212.542,631.566,215.659,642.582,215.659,657.11z
					 M208.21,657.188c0-25.313-9.191-37.958-27.571-37.958c-18.012,0-27.022,12.976-27.022,38.904
					c0,24.396,9.113,36.606,27.34,36.606C199.122,694.74,208.21,682.223,208.21,657.188z M212.81,691.096
					c5.751-7.826,8.632-19.605,8.632-35.337c0-13.892-2.848-24.728-8.555-32.5c10.885,6.501,16.326,17.627,16.326,33.368
					C229.213,672.152,223.746,683.649,212.81,691.096z"/>
				<path fill="#CCCACC" d="M264.159,623.182c-5.813,8.997-8.718,20.472-8.718,34.467c0,12.692,2.777,23.682,8.322,32.963
					c-10.669-7.012-16.008-18.277-16.008-33.752C247.755,640.975,253.223,629.734,264.159,623.182z M330.875,657.11
					c0,9.715-1.479,17.925-4.437,24.629c-2.906,6.652-7,11.574-12.281,14.736c-5.182,3.234-11.224,4.841-18.145,4.841
					c-10.988,0-19.491-3.925-25.518-11.804c-6.018-7.877-9.026-18.709-9.026-32.481c0-14.322,3.06-25.311,9.191-32.98
					c6.121-7.549,14.519-11.322,25.195-11.322c10.827,0,19.382,3.773,25.676,11.322C327.763,631.566,330.875,642.582,330.875,657.11
					z M323.43,657.188c0-25.313-9.19-37.958-27.576-37.958c-18.019,0-27.017,12.976-27.017,38.904
					c0,24.396,9.113,36.606,27.33,36.606C314.343,694.74,323.43,682.223,323.43,657.188z M328.021,691.096
					c5.759-7.826,8.641-19.605,8.641-35.337c0-13.892-2.855-24.728-8.554-32.5c10.874,6.501,16.317,17.627,16.317,33.368
					C344.425,672.152,338.957,683.649,328.021,691.096z"/>
				<path fill="#CCCACC" d="M381.202,615.737v83.515c-2.7,0-8.057,0.33-16.085,0.947v-1.425c6.387-1.308,9.585-6.227,9.585-14.739
					v-52.441c0-4.713-0.663-8.185-1.987-10.475c-1.314-2.21-3.851-3.853-7.599-4.899v-1.428
					C370.183,615.326,375.544,615.636,381.202,615.737z M397.124,650.918l43.977,48.334h-8.719l-38.744-43.108v27.892
					c0,4.384,0.71,7.672,2.137,9.838c1.376,2.217,3.936,3.851,7.685,4.901v1.425c-6.973-0.617-12.439-0.947-16.394-0.947v-83.515
					c7.23-0.255,12.696-0.585,16.394-0.945v1.428c-3.955,0.894-6.576,2.656-7.839,5.303c-1.325,2.653-1.982,8.489-1.982,17.513
					v14.584L397.124,650.918z M452.192,699.252h-3.329l-47.225-51.979l18.15-14.504c6.231-4.948,9.345-8.768,9.345-11.398
					c0-2.065-1.711-3.773-5.149-5.15v-1.428c2.381,0,5.578,0.182,9.594,0.562c3.583,0.256,6.234,0.384,7.917,0.384
					c1.643,0,3.698-0.102,6.184-0.308c3.542-0.277,6.896-0.483,10.067-0.638v1.428c-7.454,1.889-15.563,6.246-24.331,13.079
					l-5.303,4.105c-0.484,0.33-0.829,0.586-1.033,0.791l-16.646,13.407l31.542,34.928c9.564,10.68,16.767,16.086,21.636,16.244
					v1.425C456.265,699.582,452.457,699.252,452.192,699.252z"/>
				<path fill="#CCCACC" d="M537.705,661.854c-1.531,4.28-2.294,8.513-2.294,12.672c0,5.761,1.45,10.987,4.356,15.701
					c2.904,4.744,6.491,8.183,10.773,10.3c-6.5-0.435-11.805-2.626-15.924-6.577c-4.177-4.025-6.267-8.848-6.267-14.505
					C528.35,672.842,531.471,666.979,537.705,661.854z M589.048,691.406c-6.706,6.188-13.869,9.272-21.468,9.272
					c-7.772,0-14.134-2.88-19.104-8.639c-5.011-5.813-7.522-11.856-7.522-18.133c0-8.766,4.067-15.954,12.2-21.562
					c-5.022-7.078-7.522-12.644-7.522-16.723c0-3.061,0.739-6.096,2.218-9.103c0.154,3.697,1.289,7.571,3.406,11.649
					c1.159,2.168,2.854,4.719,5.073,7.675c2.217,2.958,5.415,6.907,9.585,11.804c1.375,1.585,3.494,4.014,6.374,7.252
					c2.881,3.262,5.684,6.348,8.4,9.279c2.727,2.932,4.664,5.01,5.825,6.209c6.181,6.5,11.46,11.188,15.845,14.044
					c4.651,3.01,9.01,4.921,13.076,5.767c-1.849,0.377-3.508,0.558-4.988,0.558c-4.751,0-8.664-0.816-11.729-2.448
					C595.549,696.625,592.323,694.31,589.048,691.406z M556.876,657.031c-5.864,4.645-8.795,10.049-8.795,16.243
					c0,5.004,1.96,9.765,5.863,14.251c3.861,4.49,8.96,6.732,15.296,6.732c4.911,0,9.954-2.347,15.129-7.04
					c-2.002-2.012-4.487-4.584-7.443-7.697c-2.958-3.109-5.852-6.22-8.68-9.344c-2.819-3.122-5.214-5.868-7.164-8.245
					C558.545,658.975,557.143,657.341,556.876,657.031z M628.588,690.789l0.79,1.096c-3.532,2.27-6.757,3.415-9.661,3.415
					c-3.863,0-8.453-1.835-13.793-5.479c-2.796-1.938-6.139-4.781-10.018-8.504c-3.889-3.722-8.732-8.705-14.544-14.947
					c-10.824-11.679-18.228-20.34-22.183-25.98c-3.757-5.332-5.63-9.812-5.63-13.404c0-3.691,1.53-6.838,4.601-9.413
					c3.059-2.598,7.29-3.898,12.67-3.898c5.288,0,9.699,1.376,13.233,4.129c3.592,2.803,5.389,6.374,5.389,10.703
					c0,7.221-5.278,13.831-15.845,19.811c4.806,5.688,12.622,14.175,23.454,25.418c5.228-6.171,7.842-10.863,7.842-14.097
					c0-3.852-3.087-6.172-9.268-6.964v-1.425c8.449,0.738,14.504,1.098,18.149,1.098c0.792,0,2.563-0.051,5.305-0.154
					c3.122-0.154,5.709-0.231,7.761-0.231v1.329c-4.701,0.123-9.93,4.052-15.687,11.811l-5.064,6.746
					c-0.166,0.154-0.456,0.488-0.879,1.021l-3.875,4.997c9.455,9.304,16.849,13.945,22.179,13.945
					C625.21,691.809,626.9,691.458,628.588,690.789z M567.889,641.564l1.591,1.909c6.654-3.441,9.983-8.006,9.983-13.714
					c0-3.164-0.928-5.679-2.779-7.523c-1.792-1.785-4.169-2.7-7.125-2.7c-3.277,0-5.737,0.825-7.368,2.471
					c-1.644,1.633-2.459,3.315-2.459,5.074C559.731,630.346,562.456,635.188,567.889,641.564z"/>
				<path fill="#CCCACC" d="M712.674,626.904c-6.017,7.774-9.032,18.1-9.032,30.998c0,15.095,3.73,26.461,11.176,34.06
					c-5.661-2.373-10.146-6.681-13.485-12.901c-3.316-6.194-4.976-13.155-4.976-20.927c0-5.331,0.869-10.25,2.604-14.738
					c1.632-4.437,3.593-7.902,5.862-10.376C706.939,630.646,709.563,628.611,712.674,626.904z M778.599,682.067h1.582l-2.525,13.387
					c-4.918,1.91-9.658,3.291-14.197,4.206c-4.538,0.892-8.924,1.348-13.154,1.348c-12.773,0-22.791-3.74-30.031-11.188
					c-7.24-7.393-10.86-18.131-10.86-32.248c0-14.047,3.897-24.804,11.652-32.25c7.722-7.394,17.919-11.09,30.59-11.09
					c9.201,0,18.483,1.66,27.888,4.997c-0.408,6.653-0.637,10.581-0.637,11.802c0,1.12,0.026,2.193,0.079,3.24v1.911
					c0,2.753-0.129,5.356-0.386,7.851h-1.35c-3.265-15.957-12.415-23.938-27.405-23.938c-10.146,0-18.228,3.313-24.266,9.916
					c-6.019,6.553-9.027,15.988-9.027,28.351c0,10.834,2.777,19.629,8.336,26.386c5.479,6.779,13.767,10.146,24.873,10.146
					c6.126,0,11.731-1.2,16.784-3.646C771.565,688.926,775.593,685.867,778.599,682.067z"/>
				<path fill="#CCCACC" d="M817.355,615.737v83.515h-3.415c-1.327,0-3.413,0.155-6.249,0.483c-2.446,0.308-5.301,0.464-8.564,0.464
					v-1.425c3.386-0.364,6.17-2.02,8.389-4.979c2.218-2.956,3.338-8.667,3.338-17.13v-40.713c0-11.521-3.901-18.099-11.727-19.732
					v-1.428C802.513,615.152,808.584,615.482,817.355,615.737z M825.436,699.252h-2.294v-83.515c3.162,0,6.549-0.128,10.146-0.384
					c4.106-0.38,7.469-0.562,10.046-0.562c7.239,0,12.621,2.219,16.162,6.654c3.542,4.386,5.326,9.792,5.326,16.239
					c0,10.938-4.638,17.947-13.867,21.008c4.588,0.637,8.438,1.995,11.551,4.105c3.338,2.273,8.383,6.829,15.142,13.637
					c10.299,10.453,18.711,15.683,25.194,15.683c1.318,0,2.67-0.437,4.046-1.329l0.312,1.423c-2.098,2.733-5.028,4.107-8.799,4.107
					c-4.006,0-8.211-1.503-12.596-4.511c-4.104-2.855-10.273-8.455-18.458-16.801c-9.815-10.146-19.374-15.217-28.678-15.217
					c5.758,1.809,13.538,7.851,23.375,18.147c6.91,7.189,12.466,12.417,16.646,15.701c4.209,3.268,8.262,4.898,12.111,4.898v0.714
					c-1.785,0.637-3.568,0.947-5.303,0.947c-5.126,0-9.561-1.279-13.308-3.88c-2.013-1.426-4.572-3.605-7.659-6.537
					c-3.085-2.934-6.796-6.719-11.128-11.358c-6.349-6.761-11.04-11.369-14.099-13.793c-3.288-2.49-6.476-4.229-9.587-5.225v18.766
					c0,12.642,3.801,19.5,11.397,20.603v1.425C834.791,699.582,829.543,699.252,825.436,699.252z M829.717,637.532v17.185
					c3.111,0.797,6.502,1.196,10.126,1.196c11.902,0,17.842-6.173,17.842-18.535c0-11.57-5.889-17.358-17.668-17.358
					c-3.798,0-6.761,0.765-8.87,2.295C830.179,624.431,829.717,629.503,829.717,637.532z M865.613,654.64
					c3.417-5.43,5.149-11.421,5.149-17.975c0-5.968-1.988-11.979-5.941-17.997c9.076,3.853,13.614,9.943,13.614,18.229
					C878.436,645.304,874.154,651.222,865.613,654.64z"/>
				<path fill="#CCCACC" d="M985.973,680.081l-7.061-14.735h-29.855l-7.543,14.735l-0.387,1.021
					c-0.05,0.054-0.457,0.835-1.196,2.316c-1.097,2.218-1.657,4.488-1.657,6.809c0,4.004,2.218,6.858,6.653,8.547v1.425
					c-0.894,0-2.447-0.13-4.666-0.387c-3.132-0.381-5.916-0.561-8.411-0.561c-2.271,0-5.072,0.18-8.388,0.561
					c-2.271,0.257-3.778,0.387-4.534,0.387v-1.425c5.812-2.959,11.11-9.056,15.853-18.287l26.31-51.188
					c-2.013-4.078-4.756-7.217-8.271-9.434c-3.519-2.218-7.636-3.439-12.327-3.646v-1.428h2.778c2.473,0,5.89,0.154,10.223,0.465
					c4.538,0.327,7.494,0.48,8.871,0.48l40.002,83.515c-5.126,0.102-11.27,0.433-18.458,0.947v-1.425
					c4.025-0.671,6.018-2.837,6.018-6.482C989.925,689.589,988.622,685.514,985.973,680.081z M952.143,659.406h23.916
					l-11.477-24.092L952.143,659.406z M1008.712,699.252l-40.023-83.515h7.775c1.049,2.752,2.526,6.219,4.435,10.377
					c2.115,4.493,3.313,7.162,3.57,8.004c0.255,0.482,0.508,1.043,0.711,1.659l18.613,38.595
					c6.499,13.431,13.432,21.565,20.774,24.402v1.425C1017.379,699.582,1012.1,699.252,1008.712,699.252z"/>
				<path fill="#CCCACC" d="M1059.041,615.737v83.515c-4.663,0-10.198,0.33-16.648,0.947v-1.425
					c3.646-1.103,6.272-3.347,7.853-6.734c1.581-3.317,2.373-8.771,2.373-16.318V636.59c0-7.188-0.945-12.211-2.855-15.067
					c-1.962-2.803-4.412-4.537-7.37-5.224v-1.507C1048.052,615.257,1053.587,615.584,1059.041,615.737z M1068.298,699.252h-3.164
					v-83.515h19.654c5.711,0,13.232-0.308,22.586-0.945c-0.05,1.378-0.076,3.162-0.076,5.381c0,1.273,0.076,3.646,0.23,7.138
					c0.152,3.851,0.231,5.862,0.231,6.017v2.063h-1.659c-1.478-9.508-5.967-14.271-13.46-14.271h-15.374
					c-1.756,0-3.313,0.251-4.688,0.72c-0.687,4.172-1.021,9.755-1.021,16.714v16.416h13.868c5.965,0,10.324-0.738,13.077-2.217
					c2.681-1.429,4.436-4.001,5.228-7.698h1.733c-0.358,5.71-0.559,9.637-0.559,11.806c0,1.323,0.08,3.567,0.25,6.731
					c0.205,3.029,0.309,5.192,0.309,6.497v2.626h-1.733c-0.278-8.338-4.739-12.518-13.406-12.518h-18.767v18.38
					c0,11.932,3.646,18.665,10.938,20.198v1.425C1074.996,699.582,1070.258,699.252,1068.298,699.252z"/>
				<path fill="#CCCACC" d="M1142.638,615.737h26.152v83.515h-2.387c-3.424,0-8.549,0.33-15.373,0.947v-1.425
					c4.383-1.103,7.41-3.347,9.043-6.734c1.581-3.317,2.373-8.873,2.373-16.626v-54.121h-20.213c-5.125,0-8.733,1.047-10.856,3.162
					c-2.101,2.117-3.881,6.094-5.308,11.957h-1.813c-0.052-0.687-0.076-1.425-0.076-2.217c0-1.047,0.101-2.398,0.307-4.029
					c0.636-5.659,0.946-10.785,0.946-15.374c2.802,0.36,6.293,0.612,10.474,0.714L1142.638,615.737z M1176.698,699.252h-2.043
					v-83.515h28.512c5.242,0,10.394-0.308,15.465-0.945c0,0.997-0.079,2.83-0.252,5.458c-0.154,2.445-0.231,5.479-0.231,9.125
					c0,2.321-0.13,4.666-0.403,7.037h-1.893c-0.102-4.321-1.196-7.907-3.246-10.76c-2.128-2.905-6.59-4.359-13.398-4.359h-17.986
					v56.725c0,6.5,0.93,11.393,2.771,14.659c1.856,3.287,4.71,5.305,8.561,6.098v1.425
					C1183.199,699.582,1177.919,699.252,1176.698,699.252z"/>
				<path fill="#CCCACC" d="M1239.544,671.77h1.834c0.357,6.757,3.086,12.318,8.159,16.701c4.967,4.334,10.657,6.501,17.108,6.501
					c4.969,0,9.018-1.401,12.129-4.183c3.112-2.807,4.669-6.169,4.669-10.07c0-4.129-1.505-7.316-4.514-9.586
					c-2.907-2.218-8.642-4.74-17.204-7.542c-6.861-2.27-11.752-4.134-14.658-5.612c-3.37-1.757-6.02-4.104-7.907-7.061
					c-2.065-3.01-3.089-6.396-3.089-10.146c0-4.158,1.39-8.262,4.186-12.268c-0.636,2.044-0.943,3.853-0.943,5.382
					c0,4.126,0.97,7.729,2.932,10.86c2.011,3.214,4.485,5.638,7.443,7.29c2.959,1.685,7.902,3.62,14.814,5.788
					c9.044,2.729,15.571,5.766,19.578,9.102c3.849,3.215,5.784,7.549,5.784,13.001c0,5.329-2.013,10.171-6.017,14.505
					c-4.077,4.385-10.145,6.575-18.228,6.575c-3.285,0-7.824-0.609-13.636-1.833c-5.071-1.046-8.874-1.605-11.399-1.657l-0.56-0.636
					c0.05-0.893,0.078-2.065,0.078-3.493c0-1.682-0.154-4.309-0.483-7.85c-0.258-3.521-0.386-6.172-0.386-7.906
					C1239.235,675.347,1239.339,673.402,1239.544,671.77z M1295.491,638.63h-1.672c-0.052-6.119-2.476-10.656-7.288-13.614
					c-4.695-2.905-10.405-4.359-17.11-4.359c-5.33,0-9.715,1.124-13.154,3.395c-3.49,2.29-5.227,4.995-5.227,8.18
					c0,3.366,1.376,6.043,4.128,8.003c2.846,2.103,8.466,4.617,16.864,7.522c7.816,2.685,13.295,4.891,16.406,6.577
					c3.336,1.837,6.096,4.487,8.313,7.929c2.221,3.537,3.336,7.47,3.336,11.803c0,6.604-2.42,11.779-7.291,15.524
					c1.794-2.473,2.695-5.964,2.695-10.452c0-4.229-0.984-7.979-2.932-11.265c-2.057-3.316-4.604-5.966-7.611-7.909
					c-3.062-2.01-8.057-4.151-14.968-6.421c-10.403-3.44-17.204-6.371-20.369-8.795c-3.162-2.495-4.743-6.348-4.743-11.574
					c0-6.016,2.424-10.756,7.284-14.175c4.854-3.338,11.759-4.996,20.683-4.996c6.069,0,13.487,1.047,22.257,3.162v0.559
					l0.155,3.011c0,1.581,0.051,3.493,0.155,5.711c0.175,2.678,0.249,5.072,0.249,7.131
					C1295.651,634.936,1295.601,636.64,1295.491,638.63z"/>
			</g>
		</g>
		<g>
			<g>
				<path fill="#006838" stroke="#00A14B" stroke-miterlimit="10" d="M388.107,326.441c0,105.866-85.81,191.675-191.665,191.675
					C90.588,518.116,4.78,432.308,4.78,326.441c0-105.854,85.808-191.662,191.663-191.662
					C302.298,134.779,388.107,220.588,388.107,326.441z"/>
				<g>
					<path fill="#ED1C24" stroke="#F1F2F2" stroke-width="10" stroke-miterlimit="10" d="M322.317,440.78
						c0,2.158-1.499,3.655-4.496,4.489c-3.59,0.974-14.736,1.438-33.424,1.438c-17.133,0-28.153-0.465-33.06-1.438
						c-4.073-0.834-6.646-3.514-7.725-8.085c-4.073-17.237-7.252-26.47-9.523-27.657c-1.916-0.85-17.968-1.262-48.161-1.262
						c-20.361,0-31.206,0.543-32.518,1.613c-2.041,1.928-4.313,8.317-6.83,19.222c-2.275,9.953-5.035,15.335-8.27,16.169
						c-4.074,0.974-17.727,1.438-40.969,1.438c-18.329,0-27.493-1.727-27.493-5.208c0-3.107,13.534-41.382,40.609-114.815
						c29.347-79.423,45.286-123.084,47.802-130.995c1.438-4.546,3.109-6.822,5.03-6.822c3.23,0,8.234,0.292,15.002,0.895
						c6.769,0.604,11.832,0.902,15.186,0.902c3.236,0,7.997-0.21,14.285-0.63c6.288-0.417,10.989-0.632,14.104-0.632
						c2.278,0,4.369,1.974,6.295,5.928c5.867,12.585,22.993,55.702,51.387,129.383C308.059,398.86,322.317,437.556,322.317,440.78z
						 M194.917,277.095c-2.518,5.27-6.774,16.705-12.76,34.314c-6.472,18.687-9.7,29.648-9.7,32.885
						c0,2.157,3.587,3.353,10.779,3.595c3.71,0.243,9.823,0.359,18.328,0.359c7.911,0,12.282-0.961,13.119-2.876
						c0.235-0.601,0.359-1.439,0.359-2.517c0-3.955-2.762-14.847-8.27-32.7C201.388,292.907,197.435,281.888,194.917,277.095z"/>
				</g>
			</g>
			<g>
				<path fill="#006838" stroke="#00A14B" stroke-miterlimit="10" d="M928.051,262.559c0,141.135-114.411,255.558-255.556,255.558
					c-141.138,0-255.559-114.423-255.559-255.558C416.937,121.412,531.357,7,672.495,7C813.64,7,928.051,121.412,928.051,262.559z"
					/>
				<g>
					<path fill="#ED1C24" stroke="#F1F2F2" stroke-width="10" stroke-miterlimit="10" d="M826.583,166.133
						c0,3.908-2.15,5.865-6.432,5.865c-7.452,0-36.867-1.466-88.276-4.398c-1.169,49.461-1.751,83.966-1.751,103.508
						c0,23.07,0.92,57.771,2.771,104.099c1.864,46.336,2.787,81.03,2.787,104.107c0,3.713-0.874,6.055-2.624,7.026
						c-0.591,0.401-3.339,0.895-8.225,1.465c-11.734,1.58-28.929,2.363-51.604,2.363c-25.221,0-42.913-0.783-53.077-2.363
						c-5.477-0.97-8.206-3.996-8.206-9.081c0-23.056,0.968-57.676,2.933-103.804c1.947-46.135,2.932-80.743,2.932-103.813
						c0-15.242-0.79-49.259-2.353-102.042c-39.1,3.907-70.282,5.866-93.539,5.866c-3.134,0-4.694-0.979-4.694-2.934
						c0-2.538,1.369-10.07,4.104-22.582c3.129-13.679,4.887-21.994,5.284-24.925c0.581-9.186,1.265-18.371,2.047-27.562
						c1.368-14.664,3.709-21.999,7.037-21.999c0.397,0,1.76,0.104,4.112,0.291c31.665,4.11,78.484,6.161,140.456,6.161
						c17.604,0,50.046-1.855,97.367-5.57c25.396-1.948,38.215-2.932,38.406-2.932c3.9,0,6.149,0.251,6.739,0.733
						c0.59,0.487,0.982,2.391,1.182,5.719c0,5.277-0.199,12.608-0.592,21.996c-0.398,10.361-0.59,17.691-0.59,21.992
						c0,4.886,0.636,12.074,1.914,21.545C825.967,154.351,826.583,161.441,826.583,166.133z"/>
				</g>
			</g>
			<g>
				<path fill="#006838" stroke="#00A14B" stroke-miterlimit="10" d="M1340.22,326.441c0,105.866-85.83,191.675-191.676,191.675
					c-105.863,0-191.672-85.809-191.672-191.675c0-105.854,85.809-191.662,191.672-191.662
					C1254.39,134.779,1340.22,220.588,1340.22,326.441z"/>
				<g>
					<path fill="#ED1C24" stroke="#F1F2F2" stroke-width="10" stroke-miterlimit="10" d="M1268.58,199.47
						c0,13.654-0.575,34.169-1.699,61.543c-1.151,27.366-1.722,47.946-1.722,61.716v118.423c0,3.225-1.732,4.837-5.209,4.837
						c-2.876,0-7.223,0.138-13.032,0.371c-5.813,0.23-10.152,0.348-13.028,0.348c-3.113,0-7.78-0.233-14.009-0.719
						c-6.229-0.463-10.912-0.72-14.021-0.72c-2.155,0-4.724-1.96-7.713-5.928c-8.631-11.621-28.038-37.364-58.231-77.254
						c-8.258-11.147-20.833-27.56-37.722-49.241c-0.489-0.719-1.384-1.438-2.702-2.157c-0.954,0.847-1.438,2.157-1.438,3.955
						c0,13.898,0.397,34.743,1.176,62.534c0.775,27.795,1.155,48.641,1.155,62.534c0,4.196-1.612,6.276-4.838,6.276h-62.174
						c-3.483,0-5.209-1.843-5.209-5.556c0-12.947,0.609-32.473,1.873-58.58c1.265-26.121,1.897-45.702,1.897-58.764
						c0-13.769-0.577-34.381-1.723-61.814c-1.128-27.433-1.7-47.977-1.7-61.63c0-2.631,2.334-3.955,7.02-3.955
						c6.933,0,15.506-0.474,25.691-1.438c2.388-0.232,7.113-1.009,14.188-2.332c5.983-1.079,10.727-1.614,14.207-1.614
						c1.432,0,3.632,2.034,6.645,6.104l67.017,91.823c5.983,8.264,15.038,20.37,27.132,36.296c2.989,3.713,5.58,5.567,7.737,5.567
						c1.552,0,2.331-4.664,2.331-14.013c0-12.574-0.691-31.503-2.069-56.781c-1.384-25.274-2.07-44.263-2.07-56.966
						c0-4.429,1.265-6.646,3.771-6.646c7.188,0,18.031-0.3,32.534-0.894c14.483-0.601,25.329-0.904,32.516-0.904
						C1267.431,193.892,1268.58,195.75,1268.58,199.47z"/>
				</g>
			</g>
		</g>
	</g>
</g>
</svg>
