<?xml version="1.0" encoding="utf-8"?>
<!-- Generator: Adobe Illustrator 16.0.0, SVG Export Plug-In . SVG Version: 6.00 Build 0)  -->
<!DOCTYPE svg PUBLIC "-//W3C//DTD SVG 1.1//EN" "http://www.w3.org/Graphics/SVG/1.1/DTD/svg11.dtd">
<svg version="1.1" xmlns="http://www.w3.org/2000/svg" xmlns:xlink="http://www.w3.org/1999/xlink" x="0px" y="0px" width="210px"
	 height="120px" viewBox="0 0 210 120" enable-background="new 0 0 210 120" xml:space="preserve">
<g id="Layer_1">
</g>
<g id="Layer_2">
	<path fill="#161B47" d="M204.989,102.358c0,8.211-6.657,14.868-14.87,14.868H19.879c-8.212,0-14.868-6.657-14.868-14.868l0,0
		c0-8.209,6.656-14.866,14.868-14.866h170.24C198.332,87.492,204.989,94.149,204.989,102.358L204.989,102.358z"/>
	<circle fill="#006838" cx="33.704" cy="51.679" r="28.704"/>
	<g>
		<path fill="#ED1C24" stroke="#F1F2F2" stroke-width="1.5" stroke-miterlimit="10" d="M52.556,68.803
			c0,0.323-0.225,0.548-0.673,0.673c-0.538,0.146-2.207,0.215-5.005,0.215c-2.566,0-4.217-0.069-4.952-0.215
			c-0.61-0.125-0.995-0.526-1.157-1.211c-0.61-2.581-1.086-3.964-1.426-4.142c-0.287-0.127-2.691-0.189-7.213-0.189
			c-3.049,0-4.674,0.081-4.87,0.242c-0.306,0.288-0.646,1.245-1.022,2.878c-0.341,1.49-0.754,2.297-1.239,2.422
			c-0.61,0.146-2.654,0.215-6.135,0.215c-2.746,0-4.118-0.259-4.118-0.779c0-0.466,2.027-6.198,6.082-17.195
			c4.395-11.895,6.783-18.434,7.159-19.618c0.215-0.681,0.466-1.022,0.753-1.022c0.484,0,1.233,0.044,2.247,0.134
			c1.014,0.09,1.772,0.135,2.274,0.135c0.484,0,1.197-0.031,2.139-0.094c0.942-0.063,1.646-0.095,2.112-0.095
			c0.341,0,0.654,0.295,0.942,0.888c0.879,1.885,3.444,8.342,7.696,19.377C50.42,62.525,52.556,68.32,52.556,68.803z M33.476,44.289
			c-0.377,0.79-1.014,2.501-1.911,5.139c-0.969,2.798-1.453,4.44-1.453,4.925c0,0.323,0.538,0.502,1.615,0.539
			c0.556,0.036,1.471,0.054,2.744,0.054c1.185,0,1.84-0.144,1.965-0.431c0.035-0.09,0.054-0.216,0.054-0.377
			c0-0.592-0.414-2.223-1.239-4.897C34.444,46.657,33.853,45.007,33.476,44.289z"/>
	</g>
	<circle fill="#006838" cx="104.999" cy="42.112" r="38.273"/>
	<g>
		<path fill="#ED1C24" stroke="#F1F2F2" stroke-width="1.5" stroke-miterlimit="10" d="M128.076,27.671
			c0,0.585-0.322,0.879-0.963,0.879c-1.116,0-5.522-0.22-13.221-0.659c-0.176,7.408-0.262,12.575-0.262,15.502
			c0,3.455,0.137,8.652,0.414,15.59c0.278,6.939,0.418,12.135,0.418,15.591c0,0.556-0.132,0.906-0.394,1.052
			c-0.089,0.061-0.5,0.134-1.231,0.22c-1.758,0.236-4.333,0.354-7.729,0.354c-3.777,0-6.426-0.118-7.949-0.354
			c-0.82-0.146-1.229-0.599-1.229-1.36c0-3.452,0.145-8.638,0.439-15.546c0.292-6.909,0.439-12.092,0.439-15.547
			c0-2.283-0.118-7.377-0.353-15.282c-5.855,0.585-10.525,0.878-14.009,0.878c-0.469,0-0.703-0.146-0.703-0.439
			c0-0.38,0.205-1.508,0.615-3.382c0.469-2.048,0.732-3.293,0.792-3.733c0.087-1.375,0.189-2.751,0.306-4.128
			c0.205-2.196,0.556-3.294,1.054-3.294c0.06,0,0.264,0.016,0.616,0.044c4.742,0.616,11.754,0.922,21.036,0.922
			c2.636,0,7.495-0.277,14.582-0.834c3.803-0.292,5.723-0.439,5.751-0.439c0.584,0,0.922,0.038,1.01,0.11
			c0.089,0.073,0.147,0.358,0.177,0.857c0,0.79-0.029,1.888-0.088,3.294c-0.06,1.552-0.089,2.649-0.089,3.293
			c0,0.731,0.096,1.808,0.286,3.227C127.983,25.906,128.076,26.968,128.076,27.671z"/>
	</g>
	<circle fill="#006838" cx="176.294" cy="51.679" r="28.706"/>
	<g>
		<path fill="#ED1C24" stroke="#F1F2F2" stroke-width="1.5" stroke-miterlimit="10" d="M194.271,32.664
			c0,2.045-0.085,5.118-0.254,9.217c-0.172,4.098-0.259,7.18-0.259,9.243v17.735c0,0.483-0.259,0.725-0.779,0.725
			c-0.431,0-1.082,0.021-1.951,0.056c-0.871,0.034-1.521,0.052-1.952,0.052c-0.466,0-1.165-0.035-2.098-0.107
			c-0.933-0.069-1.634-0.107-2.1-0.107c-0.323,0-0.708-0.294-1.155-0.888c-1.293-1.74-4.199-5.596-8.722-11.57
			c-1.235-1.669-3.119-4.127-5.648-7.375c-0.073-0.108-0.207-0.215-0.404-0.323c-0.144,0.127-0.216,0.323-0.216,0.593
			c0,2.081,0.059,5.203,0.176,9.365c0.116,4.163,0.173,7.285,0.173,9.366c0,0.628-0.241,0.939-0.724,0.939h-9.313
			c-0.521,0-0.779-0.275-0.779-0.832c0-1.938,0.091-4.863,0.28-8.773c0.189-3.912,0.284-6.845,0.284-8.801
			c0-2.062-0.086-5.149-0.258-9.257c-0.169-4.108-0.255-7.185-0.255-9.23c0-0.394,0.35-0.592,1.051-0.592
			c1.038,0,2.322-0.071,3.848-0.216c0.358-0.035,1.065-0.151,2.125-0.349c0.896-0.162,1.606-0.242,2.128-0.242
			c0.214,0,0.544,0.305,0.995,0.914L178.5,45.957c0.896,1.238,2.253,3.051,4.064,5.436c0.447,0.556,0.835,0.833,1.158,0.833
			c0.232,0,0.35-0.698,0.35-2.099c0-1.883-0.104-4.718-0.311-8.503c-0.207-3.786-0.31-6.629-0.31-8.532
			c0-0.663,0.189-0.995,0.564-0.995c1.076,0,2.7-0.045,4.873-0.134c2.169-0.09,3.793-0.135,4.868-0.135
			C194.099,31.828,194.271,32.106,194.271,32.664z"/>
	</g>
	<text transform="matrix(1 0 0 1 12.6133 109.2354)" fill="#FFFFFF" font-family="'CooperBlack'" font-size="20">BOOK &amp; CRAFTS</text>
</g>
</svg>
