<?xml version="1.0" encoding="utf-8"?>
<!-- Generator: Adobe Illustrator 16.0.0, SVG Export Plug-In . SVG Version: 6.00 Build 0)  -->
<!DOCTYPE svg PUBLIC "-//W3C//DTD SVG 1.1//EN" "http://www.w3.org/Graphics/SVG/1.1/DTD/svg11.dtd">
<svg version="1.1" xmlns="http://www.w3.org/2000/svg" xmlns:xlink="http://www.w3.org/1999/xlink" x="0px" y="0px" width="1345px"
	 height="764px" viewBox="0 0 1345 764" enable-background="new 0 0 1345 764" xml:space="preserve">
<g id="Layer_1">
</g>
<g id="Layer_2">
	<g>
		<g>
			<path fill="#161B47" stroke="#00A14B" stroke-miterlimit="10" d="M1175.477,575.5c0,42.908-34.783,77.691-77.691,77.691H208.168
				c-42.908,0-77.692-34.783-77.692-77.691l0,0c0-42.908,34.784-77.691,77.692-77.691h889.617
				C1140.693,497.809,1175.477,532.592,1175.477,575.5L1175.477,575.5z"/>
			<g>
				<path fill="#CCCACC" d="M167.582,542.64V608c-3.597,0.124-7.938,0.372-13.022,0.744v-1.116
					c5.292-1.446,7.938-7.048,7.938-16.806v-32.308c0-8.599-2.646-13.767-7.938-15.503v-1.116
					C158.859,542.31,163.2,542.558,167.582,542.64z M172.171,608v-65.36l10.604-0.744c5.25,0,9.426,1.634,12.526,4.899
					c3.059,3.308,4.589,7.503,4.589,12.588c0,6.367-2.77,10.956-8.31,13.767c8.93,2.026,13.395,7.835,13.395,17.425
					c0,4.838-1.468,9.075-4.403,12.713c-2.977,3.639-7.773,5.457-14.387,5.457c-2.44,0-5.085-0.146-7.938-0.434
					C175.684,608.103,173.659,608,172.171,608z M177.256,559.568v12.465h4.775c3.969,0,7.028-1.074,9.178-3.225
					c2.149-2.149,3.225-5.25,3.225-9.302c0-4.175-1.158-7.358-3.473-9.55c-2.316-2.149-5.085-3.225-8.31-3.225
					c-1.778,0-3.204,0.434-4.279,1.303C177.628,550.268,177.256,554.111,177.256,559.568z M183.457,576.436h-6.201v11.162
					c0,7.814,0.847,12.755,2.542,14.821c1.447,1.116,3.617,1.675,6.511,1.675c4.837,0,8.288-1.405,10.356-4.217
					c1.984-2.812,2.977-6.098,2.977-9.86c0-3.018-0.642-5.602-1.922-7.751c-1.324-2.191-2.977-3.721-4.961-4.59
					C190.65,576.85,187.55,576.436,183.457,576.436z M200.758,571.165c2.521-3.307,3.783-7.234,3.783-11.782
					c0-3.597-0.704-6.821-2.108-9.674c-1.448-2.935-3.122-4.898-5.023-5.891c4.093,0.867,7.234,2.625,9.426,5.271
					c2.191,2.688,3.287,5.664,3.287,8.93c0,2.895-0.91,5.623-2.729,8.186C205.574,568.685,203.363,570.339,200.758,571.165z
					 M203.859,606.264c3.803-4.01,5.705-9.136,5.705-15.379c0-6.697-1.984-12.112-5.953-16.247
					c7.854,2.853,11.782,8.104,11.782,15.751c0,3.763-1.096,7.111-3.287,10.046C209.915,603.37,207.166,605.313,203.859,606.264z"/>
				<path fill="#CCCACC" d="M243.241,548.469c-4.548,7.028-6.821,16.021-6.821,26.975c0,9.922,2.17,18.521,6.511,25.797
					c-8.351-5.497-12.526-14.303-12.526-26.416C230.404,562.381,234.683,553.596,243.241,548.469z M295.455,575.01
					c0,7.607-1.158,14.036-3.473,19.285c-2.274,5.209-5.479,9.055-9.612,11.535c-4.052,2.521-8.785,3.782-14.201,3.782
					c-8.599,0-15.255-3.079-19.968-9.239s-7.069-14.635-7.069-25.426c0-11.202,2.397-19.802,7.193-25.797
					c4.795-5.911,11.369-8.867,19.72-8.867c8.474,0,15.171,2.956,20.092,8.867C293.015,555.021,295.455,563.642,295.455,575.01z
					 M289.625,575.072c0-19.803-7.193-29.704-21.58-29.704c-14.098,0-21.146,10.149-21.146,30.448
					c0,19.1,7.131,28.648,21.394,28.648C282.515,604.465,289.625,594.668,289.625,575.072z M293.222,601.613
					c4.505-6.118,6.759-15.338,6.759-27.658c0-10.872-2.232-19.348-6.697-25.424c8.516,5.084,12.774,13.787,12.774,26.106
					C306.059,586.792,301.78,595.783,293.222,601.613z"/>
				<path fill="#CCCACC" d="M333.41,548.469c-4.548,7.028-6.821,16.021-6.821,26.975c0,9.922,2.17,18.521,6.511,25.797
					c-8.351-5.497-12.526-14.303-12.526-26.416C320.574,562.381,324.853,553.596,333.41,548.469z M385.624,575.01
					c0,7.607-1.158,14.036-3.473,19.285c-2.274,5.209-5.479,9.055-9.612,11.535c-4.052,2.521-8.785,3.782-14.201,3.782
					c-8.599,0-15.255-3.079-19.968-9.239s-7.069-14.635-7.069-25.426c0-11.202,2.397-19.802,7.193-25.797
					c4.795-5.911,11.369-8.867,19.72-8.867c8.474,0,15.171,2.956,20.092,8.867C383.184,555.021,385.624,563.642,385.624,575.01z
					 M379.795,575.072c0-19.803-7.193-29.704-21.58-29.704c-14.098,0-21.146,10.149-21.146,30.448
					c0,19.1,7.131,28.648,21.394,28.648C372.684,604.465,379.795,594.668,379.795,575.072z M383.392,601.613
					c4.505-6.118,6.759-15.338,6.759-27.658c0-10.872-2.232-19.348-6.697-25.424c8.516,5.084,12.774,13.787,12.774,26.106
					C396.228,586.792,391.949,595.783,383.392,601.613z"/>
				<path fill="#CCCACC" d="M425.007,542.64V608c-2.109,0-6.306,0.248-12.589,0.744v-1.116c5.001-1.033,7.503-4.878,7.503-11.534
					v-41.052c0-3.679-0.518-6.407-1.55-8.186c-1.034-1.736-3.018-3.018-5.953-3.845v-1.116
					C416.386,542.31,420.582,542.558,425.007,542.64z M437.47,570.173L471.888,608h-6.822l-30.324-33.734v21.828
					c0,3.432,0.559,5.995,1.676,7.689c1.074,1.736,3.078,3.019,6.014,3.845v1.116c-5.457-0.496-9.734-0.744-12.836-0.744v-65.36
					c5.664-0.206,9.941-0.454,12.836-0.744v1.116c-3.1,0.703-5.146,2.088-6.139,4.154c-1.033,2.068-1.551,6.636-1.551,13.705v11.41
					L437.47,570.173z M480.569,608h-2.605l-36.959-40.68l14.201-11.348c4.877-3.886,7.316-6.862,7.316-8.93
					c0-1.613-1.344-2.956-4.029-4.031v-1.116c1.859,0,4.359,0.146,7.502,0.435c2.811,0.207,4.879,0.31,6.201,0.31
					c1.281,0,2.895-0.082,4.838-0.248c2.77-0.206,5.395-0.372,7.875-0.496v1.116c-5.828,1.488-12.176,4.898-19.037,10.232
					l-4.154,3.225c-0.373,0.248-0.643,0.455-0.807,0.619l-13.023,10.48l24.682,27.348c7.482,8.351,13.125,12.588,16.93,12.712v1.116
					C483.751,608.248,480.774,608,480.569,608z"/>
				<path fill="#CCCACC" d="M547.488,578.73c-1.199,3.349-1.798,6.656-1.798,9.922c0,4.507,1.136,8.6,3.41,12.278
					c2.273,3.721,5.085,6.408,8.434,8.062c-5.085-0.331-9.24-2.047-12.465-5.146c-3.266-3.142-4.898-6.925-4.898-11.349
					C540.171,587.33,542.609,582.741,547.488,578.73z M587.672,601.861c-5.251,4.836-10.853,7.255-16.806,7.255
					c-6.076,0-11.059-2.253-14.944-6.759c-3.928-4.548-5.892-9.281-5.892-14.201c0-6.862,3.184-12.484,9.551-16.867
					c-3.929-5.539-5.892-9.9-5.892-13.084c0-2.397,0.578-4.775,1.736-7.132c0.124,2.895,1.013,5.933,2.667,9.116
					c0.908,1.695,2.232,3.7,3.969,6.015c1.736,2.315,4.236,5.396,7.503,9.239c1.074,1.24,2.738,3.132,4.992,5.675
					c2.253,2.542,4.443,4.961,6.573,7.255c2.129,2.295,3.647,3.918,4.558,4.868c4.837,5.085,8.971,8.743,12.402,10.976
					c3.638,2.357,7.048,3.865,10.231,4.527c-1.447,0.289-2.749,0.434-3.906,0.434c-3.721,0-6.78-0.641-9.178-1.922
					C592.757,605.934,590.234,604.135,587.672,601.861z M562.495,574.947c-4.589,3.639-6.883,7.876-6.883,12.713
					c0,3.928,1.528,7.648,4.588,11.162c3.018,3.515,7.008,5.271,11.969,5.271c3.845,0,7.792-1.84,11.844-5.52
					c-1.571-1.57-3.514-3.575-5.828-6.016c-2.316-2.438-4.58-4.877-6.791-7.316c-2.212-2.439-4.083-4.59-5.611-6.449
					C563.798,576.478,562.701,575.195,562.495,574.947z M618.616,601.365l0.619,0.867c-2.77,1.778-5.292,2.667-7.564,2.667
					c-3.019,0-6.615-1.427-10.791-4.278c-2.191-1.529-4.806-3.752-7.844-6.667c-3.039-2.914-6.832-6.811-11.379-11.688
					c-8.476-9.137-14.264-15.916-17.363-20.34c-2.937-4.176-4.403-7.669-4.403-10.48c0-2.894,1.198-5.354,3.597-7.379
					c2.397-2.025,5.705-3.039,9.922-3.039c4.134,0,7.586,1.075,10.355,3.225c2.812,2.191,4.217,4.982,4.217,8.371
					c0,5.665-4.134,10.832-12.402,15.504c3.762,4.465,9.881,11.1,18.355,19.905c4.094-4.837,6.14-8.516,6.14-11.038
					c0-3.018-2.419-4.837-7.255-5.457v-1.116c6.613,0.579,11.348,0.868,14.2,0.868c0.62,0,2.005-0.041,4.155-0.124
					c2.438-0.124,4.465-0.187,6.076-0.187v1.055c-3.68,0.083-7.772,3.162-12.277,9.24l-3.969,5.271
					c-0.125,0.124-0.353,0.394-0.683,0.806l-3.038,3.907c7.399,7.276,13.187,10.914,17.363,10.914
					C615.97,602.171,617.292,601.902,618.616,601.365z M571.114,562.855l1.24,1.488c5.209-2.687,7.814-6.264,7.814-10.729
					c0-2.48-0.725-4.443-2.171-5.891c-1.406-1.405-3.267-2.108-5.581-2.108c-2.563,0-4.486,0.642-5.768,1.923
					s-1.922,2.604-1.922,3.969C564.728,554.071,566.856,557.854,571.114,562.855z"/>
				<path fill="#CCCACC" d="M684.419,551.383c-4.713,6.078-7.068,14.16-7.068,24.247c0,11.824,2.914,20.712,8.743,26.665
					c-4.424-1.86-7.938-5.229-10.542-10.107c-2.604-4.838-3.906-10.295-3.906-16.371c0-4.176,0.682-8.021,2.046-11.535
					c1.281-3.473,2.811-6.18,4.589-8.123C679.934,554.298,681.979,552.707,684.419,551.383z M736.013,594.543h1.24l-1.984,10.48
					c-3.844,1.488-7.545,2.584-11.1,3.287c-3.556,0.702-6.987,1.054-10.294,1.054c-10.005,0-17.839-2.915-23.503-8.743
					c-5.664-5.788-8.495-14.201-8.495-25.239c0-10.996,3.038-19.409,9.116-25.239c6.035-5.787,14.014-8.682,23.936-8.682
					c7.193,0,14.47,1.303,21.828,3.907c-0.331,5.209-0.496,8.289-0.496,9.239c0,0.869,0.021,1.717,0.063,2.543v1.488
					c0,2.15-0.104,4.196-0.311,6.139h-1.054c-2.563-12.484-9.716-18.727-21.456-18.727c-7.938,0-14.263,2.584-18.976,7.751
					c-4.713,5.127-7.069,12.526-7.069,22.2c0,8.476,2.17,15.358,6.512,20.65c4.299,5.292,10.789,7.938,19.471,7.938
					c4.796,0,9.178-0.951,13.146-2.854C730.515,599.918,733.657,597.52,736.013,594.543z"/>
				<path fill="#CCCACC" d="M766.341,542.64V608h-2.666c-1.034,0-2.667,0.124-4.899,0.372c-1.902,0.248-4.135,0.372-6.697,0.372
					v-1.116c2.646-0.289,4.837-1.591,6.573-3.907c1.736-2.314,2.604-6.779,2.604-13.395v-31.873c0-9.013-3.06-14.159-9.178-15.441
					v-1.116C754.724,542.186,759.478,542.434,766.341,542.64z M772.666,608h-1.798v-65.36c2.48,0,5.125-0.103,7.938-0.31
					c3.225-0.289,5.849-0.435,7.875-0.435c5.663,0,9.88,1.736,12.65,5.209c2.77,3.432,4.154,7.669,4.154,12.712
					c0,8.559-3.617,14.036-10.852,16.434c3.597,0.496,6.614,1.571,9.054,3.225c2.604,1.778,6.552,5.333,11.845,10.666
					c8.061,8.186,14.635,12.278,19.719,12.278c1.033,0,2.088-0.351,3.163-1.054l0.248,1.115c-1.654,2.15-3.948,3.225-6.884,3.225
					c-3.142,0-6.429-1.178-9.859-3.534c-3.225-2.232-8.041-6.614-14.449-13.146c-7.689-7.938-15.172-11.906-22.447-11.906
					c4.505,1.406,10.604,6.14,18.293,14.2c5.415,5.623,9.756,9.716,13.022,12.279c3.307,2.563,6.47,3.844,9.487,3.844V608
					c-1.405,0.496-2.79,0.744-4.154,0.744c-4.011,0-7.483-1.013-10.418-3.039c-1.571-1.115-3.565-2.821-5.984-5.115
					c-2.418-2.295-5.323-5.261-8.713-8.898c-4.961-5.292-8.641-8.889-11.037-10.791c-2.564-1.942-5.065-3.307-7.504-4.092v14.696
					c0,9.881,2.977,15.255,8.93,16.123v1.116C779.983,608.248,775.891,608,772.666,608z M776.015,559.693v13.456
					c2.438,0.62,5.085,0.931,7.938,0.931c9.302,0,13.953-4.838,13.953-14.512c0-9.053-4.61-13.58-13.829-13.58
					c-2.977,0-5.292,0.6-6.945,1.799C776.387,549.44,776.015,553.409,776.015,559.693z M804.106,573.088
					c2.687-4.258,4.03-8.95,4.03-14.077c0-4.671-1.55-9.364-4.651-14.077c7.11,3.019,10.666,7.773,10.666,14.264
					C814.151,565.77,810.804,570.4,804.106,573.088z"/>
				<path fill="#CCCACC" d="M898.307,592.993l-5.52-11.534h-23.379l-5.891,11.534l-0.311,0.806c-0.041,0.042-0.352,0.642-0.93,1.799
					c-0.868,1.736-1.303,3.515-1.303,5.333c0,3.143,1.736,5.375,5.209,6.697v1.116c-0.703,0-1.922-0.104-3.658-0.311
					c-2.439-0.289-4.631-0.434-6.573-0.434c-1.778,0-3.969,0.145-6.573,0.434c-1.778,0.207-2.956,0.311-3.535,0.311v-1.116
					c4.548-2.314,8.682-7.09,12.402-14.325l20.588-40.059c-1.571-3.184-3.73-5.644-6.479-7.38c-2.75-1.736-5.964-2.687-9.644-2.853
					v-1.116h2.171c1.942,0,4.609,0.124,7.999,0.372c3.556,0.248,5.87,0.372,6.945,0.372L911.143,608
					c-4.011,0.082-8.827,0.33-14.449,0.744v-1.116c3.142-0.537,4.713-2.232,4.713-5.085
					C901.406,600.435,900.373,597.252,898.307,592.993z M871.827,576.809h18.728l-8.992-18.852L871.827,576.809z M916.104,608
					l-31.316-65.36h6.078c0.826,2.15,1.984,4.858,3.473,8.124c1.652,3.514,2.583,5.602,2.79,6.263
					c0.206,0.372,0.393,0.806,0.558,1.302l14.573,30.2c5.085,10.501,10.5,16.867,16.247,19.1v1.116
					C922.883,608.248,918.749,608,916.104,608z"/>
				<path fill="#CCCACC" d="M955.486,542.64V608c-3.639,0-7.979,0.248-13.023,0.744v-1.116c2.854-0.868,4.899-2.625,6.14-5.271
					c1.24-2.605,1.86-6.862,1.86-12.775v-30.633c0-5.622-0.744-9.551-2.232-11.783c-1.53-2.19-3.452-3.555-5.768-4.092v-1.179
					C946.887,542.268,951.228,542.516,955.486,542.64z M962.741,608h-2.48v-65.36h15.379c4.465,0,10.356-0.248,17.673-0.744
					c-0.041,1.075-0.062,2.48-0.062,4.217c0,0.992,0.062,2.853,0.187,5.581c0.123,3.019,0.186,4.589,0.186,4.713v1.612h-1.303
					c-1.157-7.441-4.672-11.162-10.541-11.162h-12.031c-1.363,0-2.584,0.187-3.658,0.558c-0.538,3.267-0.807,7.628-0.807,13.085
					v12.837h10.853c4.671,0,8.082-0.579,10.231-1.736c2.109-1.117,3.473-3.121,4.094-6.016h1.363
					c-0.289,4.465-0.434,7.545-0.434,9.24c0,1.033,0.063,2.79,0.186,5.271c0.165,2.356,0.248,4.052,0.248,5.085v2.047h-1.363
					c-0.208-6.532-3.701-9.799-10.48-9.799h-14.697v14.387c0,9.344,2.854,14.615,8.559,15.813v1.116
					C967.971,608.248,964.271,608,962.741,608z"/>
				<path fill="#CCCACC" d="M1020.912,542.64h20.464V608h-1.86c-2.688,0-6.697,0.248-12.03,0.744v-1.116
					c3.431-0.868,5.787-2.625,7.069-5.271c1.24-2.605,1.86-6.945,1.86-13.023V546.98h-15.813c-4.011,0-6.843,0.827-8.496,2.48
					c-1.654,1.654-3.039,4.775-4.154,9.363h-1.427c-0.042-0.536-0.062-1.115-0.062-1.736c0-0.826,0.082-1.88,0.248-3.162
					c0.496-4.423,0.744-8.434,0.744-12.03c2.19,0.29,4.919,0.476,8.186,0.558L1020.912,542.64z M1047.577,608h-1.612v-65.36h22.324
					c4.093,0,8.124-0.248,12.093-0.744c0,0.786-0.063,2.212-0.187,4.278c-0.124,1.902-0.187,4.279-0.187,7.132
					c0,1.819-0.104,3.659-0.31,5.519h-1.488c-0.083-3.389-0.931-6.201-2.542-8.434c-1.654-2.272-5.147-3.41-10.48-3.41h-14.076v44.4
					c0,5.085,0.723,8.909,2.17,11.473c1.446,2.563,3.679,4.154,6.697,4.774v1.116C1052.662,608.248,1048.527,608,1047.577,608z"/>
				<path fill="#CCCACC" d="M1096.757,586.482h1.427c0.289,5.292,2.419,9.653,6.388,13.084c3.885,3.391,8.35,5.085,13.395,5.085
					c3.885,0,7.048-1.095,9.487-3.286c2.438-2.191,3.659-4.816,3.659-7.876c0-3.225-1.179-5.726-3.535-7.503
					c-2.274-1.736-6.76-3.7-13.457-5.892c-5.374-1.777-9.198-3.245-11.472-4.403c-2.646-1.363-4.713-3.203-6.201-5.519
					c-1.612-2.356-2.419-5.002-2.419-7.938c0-3.266,1.096-6.47,3.287-9.612c-0.496,1.613-0.744,3.019-0.744,4.217
					c0,3.225,0.765,6.058,2.295,8.496c1.57,2.522,3.513,4.424,5.828,5.705c2.315,1.323,6.181,2.832,11.597,4.527
					c7.069,2.149,12.175,4.526,15.317,7.131c3.017,2.522,4.526,5.912,4.526,10.17c0,4.176-1.571,7.959-4.713,11.348
					c-3.184,3.433-7.938,5.147-14.263,5.147c-2.563,0-6.119-0.476-10.666-1.427c-3.969-0.826-6.945-1.26-8.93-1.302l-0.434-0.496
					c0.04-0.702,0.062-1.612,0.062-2.729c0-1.322-0.124-3.369-0.372-6.14c-0.207-2.769-0.311-4.836-0.311-6.201
					C1096.509,589.294,1096.592,587.764,1096.757,586.482z M1140.538,560.561h-1.303c-0.042-4.795-1.943-8.35-5.705-10.666
					c-3.68-2.272-8.145-3.41-13.395-3.41c-4.176,0-7.607,0.89-10.294,2.666c-2.729,1.778-4.093,3.907-4.093,6.388
					c0,2.646,1.074,4.734,3.225,6.263c2.232,1.654,6.635,3.618,13.209,5.892c6.117,2.108,10.396,3.824,12.836,5.147
					c2.604,1.447,4.775,3.514,6.512,6.201c1.736,2.77,2.604,5.85,2.604,9.239c0,5.168-1.901,9.22-5.705,12.154
					c1.405-1.942,2.109-4.671,2.109-8.186c0-3.307-0.766-6.242-2.295-8.806c-1.612-2.604-3.597-4.671-5.953-6.201
					c-2.398-1.57-6.305-3.245-11.721-5.023c-8.145-2.687-13.456-4.98-15.937-6.883c-2.48-1.942-3.721-4.961-3.721-9.054
					c0-4.713,1.901-8.412,5.705-11.101c3.803-2.604,9.198-3.906,16.185-3.906c4.754,0,10.563,0.827,17.426,2.48v0.434l0.124,2.357
					c0,1.24,0.041,2.729,0.124,4.465c0.124,2.107,0.186,3.969,0.186,5.58C1140.661,557.668,1140.62,558.99,1140.538,560.561z"/>
			</g>
		</g>
		<g>
			<g>
				<circle fill="#006838" stroke="#00A14B" stroke-miterlimit="10" cx="280.416" cy="316.235" r="150"/>
				<g>
					<path fill="#ED1C24" stroke="#F1F2F2" stroke-width="5" stroke-miterlimit="10" d="M378.923,405.72
						c0,1.688-1.174,2.86-3.516,3.516c-2.813,0.749-11.531,1.125-26.156,1.125c-13.408,0-22.032-0.376-25.875-1.125
						c-3.188-0.655-5.203-2.765-6.047-6.328c-3.188-13.5-5.674-20.718-7.453-21.656c-1.501-0.655-14.063-0.984-37.688-0.984
						c-15.939,0-24.423,0.422-25.453,1.266c-1.595,1.501-3.375,6.517-5.344,15.047c-1.782,7.782-3.938,12.001-6.469,12.656
						c-3.188,0.749-13.876,1.125-32.063,1.125c-14.344,0-21.516-1.358-21.516-4.078c0-2.437,10.593-32.39,31.781-89.859
						c22.968-62.156,35.438-96.328,37.406-102.516c1.125-3.562,2.437-5.344,3.938-5.344c2.531,0,6.444,0.235,11.742,0.703
						c5.295,0.47,9.257,0.703,11.883,0.703c2.531,0,6.258-0.163,11.18-0.492c4.922-0.327,8.6-0.492,11.039-0.492
						c1.779,0,3.421,1.547,4.922,4.641c4.592,9.844,18,43.594,40.219,101.25C367.765,372.908,378.923,403.188,378.923,405.72z
						 M279.22,277.61c-1.969,4.126-5.298,13.078-9.984,26.859c-5.063,14.625-7.594,23.203-7.594,25.734
						c0,1.688,2.813,2.626,8.438,2.813c2.905,0.188,7.686,0.281,14.344,0.281c6.188,0,9.608-0.749,10.266-2.25
						c0.187-0.468,0.281-1.125,0.281-1.969c0-3.094-2.158-11.624-6.469-25.594C284.283,289.985,281.189,281.361,279.22,277.61z"/>
				</g>
			</g>
			<g>
				<circle fill="#006838" stroke="#00A14B" stroke-miterlimit="10" cx="652.977" cy="266.235" r="200"/>
				<g>
					<path fill="#ED1C24" stroke="#F1F2F2" stroke-width="5" stroke-miterlimit="10" d="M773.575,190.771
						c0,3.063-1.686,4.59-5.049,4.59c-5.816,0-28.841-1.147-69.077-3.442c-0.918,38.709-1.377,65.714-1.377,81.011
						c0,18.055,0.725,45.21,2.181,81.47c1.452,36.26,2.18,63.419,2.18,81.47c0,2.908-0.688,4.744-2.065,5.508
						c-0.459,0.309-2.604,0.688-6.426,1.147c-9.18,1.223-22.645,1.836-40.391,1.836c-19.736,0-33.585-0.613-41.538-1.836
						c-4.285-0.764-6.426-3.134-6.426-7.114c0-18.051,0.764-45.131,2.295-81.24c1.527-36.105,2.295-63.186,2.295-81.24
						c0-11.934-0.613-38.555-1.836-79.863c-30.602,3.063-55.003,4.59-73.208,4.59c-2.449,0-3.672-0.764-3.672-2.295
						c0-1.986,1.068-7.878,3.213-17.671c2.445-10.707,3.822-17.212,4.131-19.507c0.459-7.189,0.993-14.379,1.606-21.572
						c1.068-11.475,2.904-17.212,5.508-17.212c0.305,0,1.377,0.079,3.213,0.229c24.785,3.213,61.425,4.819,109.927,4.819
						c13.77,0,39.164-1.452,76.191-4.36c19.887-1.527,29.909-2.295,30.063-2.295c3.059,0,4.819,0.194,5.278,0.574
						c0.459,0.384,0.764,1.875,0.918,4.475c0,4.131-0.154,9.868-0.459,17.212c-0.309,8.111-0.459,13.849-0.459,17.212
						c0,3.826,0.495,9.449,1.491,16.868C773.077,181.556,773.575,187.1,773.575,190.771z"/>
				</g>
			</g>
			<g>
				<circle fill="#006838" stroke="#00A14B" stroke-miterlimit="10" cx="1025.537" cy="316.235" r="150"/>
				<g>
					<path fill="#ED1C24" stroke="#F1F2F2" stroke-width="5" stroke-miterlimit="10" d="M1119.475,216.86
						c0,10.688-0.447,26.743-1.336,48.164c-0.893,21.423-1.336,37.524-1.336,48.305v92.672c0,2.531-1.361,3.797-4.078,3.797
						c-2.25,0-5.65,0.093-10.195,0.281c-4.549,0.187-7.945,0.281-10.195,0.281c-2.439,0-6.096-0.188-10.969-0.563
						c-4.877-0.374-8.533-0.563-10.969-0.563c-1.688,0-3.705-1.547-6.047-4.641c-6.75-9.093-21.938-29.25-45.563-60.469
						c-6.469-8.719-16.313-21.562-29.531-38.531c-0.377-0.563-1.08-1.125-2.109-1.688c-0.752,0.657-1.125,1.688-1.125,3.094
						c0,10.876,0.303,27.188,0.914,48.938c0.607,21.751,0.914,38.063,0.914,48.938c0,3.282-1.266,4.922-3.797,4.922h-48.656
						c-2.721,0-4.078-1.452-4.078-4.359c0-10.125,0.492-25.405,1.477-45.844c0.984-20.437,1.477-35.765,1.477-45.984
						c0-10.78-0.447-26.905-1.336-48.375c-0.893-21.467-1.336-37.547-1.336-48.234c0-2.061,1.828-3.094,5.484-3.094
						c5.436,0,12.139-0.374,20.109-1.125c1.873-0.187,5.576-0.795,11.109-1.828c4.686-0.844,8.389-1.266,11.109-1.266
						c1.125,0,2.857,1.595,5.203,4.781l52.453,71.859c4.686,6.469,11.764,15.938,21.234,28.406c2.342,2.907,4.359,4.359,6.047,4.359
						c1.217,0,1.828-3.656,1.828-10.969c0-9.844-0.541-24.655-1.617-44.438c-1.08-19.78-1.617-34.64-1.617-44.578
						c0-3.467,0.984-5.203,2.953-5.203c5.625,0,14.107-0.233,25.453-0.703c11.342-0.468,19.828-0.703,25.453-0.703
						C1118.582,212.501,1119.475,213.956,1119.475,216.86z"/>
				</g>
			</g>
		</g>
	</g>
</g>
</svg>
