<?xml version="1.0" encoding="utf-8"?>
<!-- Generator: Adobe Illustrator 16.0.0, SVG Export Plug-In . SVG Version: 6.00 Build 0)  -->
<!DOCTYPE svg PUBLIC "-//W3C//DTD SVG 1.1//EN" "http://www.w3.org/Graphics/SVG/1.1/DTD/svg11.dtd">
<svg version="1.1" xmlns="http://www.w3.org/2000/svg" xmlns:xlink="http://www.w3.org/1999/xlink" x="0px" y="0px" width="132px"
	 height="65px" viewBox="0 0 132 65" enable-background="new 0 0 132 65" xml:space="preserve">
<g id="Layer_1">
</g>
<g id="Layer_2">
	<circle fill="#006838" cx="20.733" cy="33.609" r="18.31"/>
	<g>
		<path fill="#ED1C24" stroke="#F1F2F2" stroke-width="0.75" stroke-miterlimit="10" d="M32.758,44.532
			c0,0.206-0.143,0.35-0.429,0.43c-0.343,0.093-1.408,0.137-3.193,0.137c-1.637,0-2.69-0.044-3.159-0.137
			c-0.389-0.08-0.635-0.336-0.738-0.772c-0.389-1.646-0.693-2.529-0.91-2.643c-0.184-0.081-1.717-0.12-4.601-0.12
			c-1.945,0-2.981,0.052-3.107,0.154c-0.195,0.184-0.412,0.794-0.652,1.836c-0.217,0.95-0.481,1.465-0.791,1.545
			c-0.389,0.093-1.693,0.137-3.914,0.137c-1.751,0-2.626-0.165-2.626-0.497c0-0.297,1.293-3.954,3.879-10.969
			c2.803-7.587,4.327-11.759,4.567-12.514c0.137-0.435,0.297-0.652,0.48-0.652c0.309,0,0.787,0.028,1.433,0.085
			c0.647,0.058,1.13,0.086,1.451,0.086c0.309,0,0.764-0.02,1.364-0.06c0.601-0.04,1.05-0.061,1.348-0.061
			c0.218,0,0.417,0.188,0.601,0.566c0.561,1.203,2.197,5.321,4.91,12.36C31.396,40.528,32.758,44.225,32.758,44.532z M20.587,28.896
			c-0.24,0.503-0.647,1.596-1.219,3.277c-0.618,1.786-0.927,2.833-0.927,3.143c0,0.205,0.343,0.32,1.03,0.343
			c0.354,0.023,0.938,0.034,1.75,0.034c0.756,0,1.174-0.092,1.253-0.274c0.022-0.058,0.035-0.138,0.035-0.241
			c0-0.377-0.264-1.418-0.79-3.123C21.205,30.406,20.828,29.354,20.587,28.896z"/>
	</g>
	<circle fill="#006838" cx="66.211" cy="27.507" r="24.414"/>
	<g>
		<path fill="#ED1C24" stroke="#F1F2F2" stroke-width="0.75" stroke-miterlimit="10" d="M80.932,18.295
			c0,0.374-0.205,0.561-0.615,0.561c-0.711,0-3.521-0.14-8.432-0.42c-0.113,4.725-0.168,8.022-0.168,9.888
			c0,2.204,0.088,5.52,0.264,9.944c0.178,4.427,0.268,7.741,0.268,9.946c0,0.354-0.084,0.578-0.252,0.671
			c-0.057,0.039-0.318,0.085-0.785,0.14c-1.121,0.151-2.764,0.227-4.93,0.227c-2.41,0-4.1-0.075-5.071-0.227
			c-0.523-0.093-0.784-0.382-0.784-0.867c0-2.202,0.093-5.51,0.28-9.917c0.187-4.406,0.28-7.713,0.28-9.917
			c0-1.456-0.075-4.706-0.225-9.748c-3.735,0.373-6.714,0.561-8.936,0.561c-0.299,0-0.449-0.094-0.449-0.28
			c0-0.243,0.131-0.962,0.392-2.157c0.299-1.307,0.467-2.101,0.505-2.381c0.056-0.877,0.121-1.755,0.195-2.633
			c0.131-1.4,0.355-2.102,0.672-2.102c0.038,0,0.168,0.01,0.393,0.028c3.025,0.393,7.498,0.588,13.418,0.588
			c1.682,0,4.781-0.177,9.303-0.532c2.426-0.186,3.65-0.28,3.668-0.28c0.373,0,0.588,0.024,0.645,0.07
			c0.057,0.046,0.094,0.228,0.111,0.546c0,0.504-0.018,1.204-0.055,2.101c-0.039,0.99-0.057,1.69-0.057,2.101
			c0,0.466,0.061,1.153,0.182,2.058C80.873,17.169,80.932,17.847,80.932,18.295z"/>
	</g>
	<circle fill="#006838" cx="111.689" cy="33.609" r="18.311"/>
	<g>
		<path fill="#ED1C24" stroke="#F1F2F2" stroke-width="0.75" stroke-miterlimit="10" d="M123.156,21.479
			c0,1.305-0.055,3.265-0.162,5.88c-0.109,2.613-0.166,4.58-0.166,5.896v11.313c0,0.309-0.164,0.463-0.496,0.463
			c-0.275,0-0.691,0.013-1.244,0.035c-0.557,0.021-0.971,0.033-1.246,0.033c-0.297,0-0.744-0.022-1.338-0.068
			c-0.596-0.045-1.043-0.068-1.34-0.068c-0.205,0-0.451-0.188-0.736-0.566c-0.824-1.11-2.68-3.569-5.564-7.381
			c-0.787-1.064-1.988-2.633-3.602-4.704c-0.047-0.068-0.133-0.138-0.258-0.206c-0.092,0.081-0.139,0.206-0.139,0.378
			c0,1.328,0.037,3.318,0.111,5.974s0.111,4.647,0.111,5.975c0,0.4-0.154,0.6-0.461,0.6h-5.941c-0.332,0-0.496-0.176-0.496-0.531
			c0-1.236,0.057-3.102,0.178-5.596c0.121-2.495,0.182-4.366,0.182-5.614c0-1.315-0.055-3.284-0.164-5.905
			c-0.107-2.62-0.162-4.583-0.162-5.887c0-0.251,0.223-0.378,0.67-0.378c0.662,0,1.48-0.045,2.453-0.138
			c0.229-0.022,0.68-0.096,1.355-0.223c0.572-0.103,1.025-0.154,1.357-0.154c0.137,0,0.348,0.194,0.635,0.583l6.402,8.772
			c0.572,0.79,1.438,1.946,2.594,3.468c0.285,0.354,0.531,0.532,0.738,0.532c0.148,0,0.223-0.445,0.223-1.339
			c0-1.201-0.066-3.01-0.197-5.425c-0.133-2.414-0.199-4.228-0.199-5.442c0-0.423,0.121-0.635,0.361-0.635
			c0.686,0,1.723-0.029,3.107-0.085c1.385-0.058,2.42-0.086,3.105-0.086C123.047,20.947,123.156,21.124,123.156,21.479z"/>
	</g>
	<g>
		<path fill="#161B47" d="M6.701,63.254L5.877,63.26c-0.578,0.008-1,0.021-1.267,0.037c-0.238,0.021-0.408,0.03-0.511,0.03
			c-0.25,0-0.449-0.063-0.596-0.19c-0.144-0.127-0.215-0.278-0.215-0.455c0-0.114,0.027-0.205,0.08-0.271s0.182-0.168,0.387-0.308
			c0.119-0.082,0.201-0.21,0.246-0.384c0.045-0.175,0.094-0.549,0.147-1.123c0.078-0.894,0.117-1.994,0.117-3.302
			c0-0.479-0.032-0.799-0.096-0.956c-0.063-0.158-0.212-0.288-0.446-0.391c-0.271-0.115-0.406-0.283-0.406-0.505
			c0-0.18,0.081-0.327,0.243-0.442c0.162-0.114,0.37-0.172,0.625-0.172c0.139,0,0.317,0.006,0.535,0.019
			c0.361,0.016,0.75,0.024,1.168,0.024c0.308,0,0.912-0.013,1.814-0.037c0.283-0.008,0.539-0.013,0.769-0.013
			c0.545,0,0.985,0.045,1.319,0.133c0.334,0.088,0.625,0.236,0.87,0.445c0.402,0.341,0.603,0.796,0.603,1.365
			c0,0.283-0.06,0.559-0.179,0.827c-0.119,0.269-0.279,0.483-0.479,0.643c-0.144,0.115-0.215,0.22-0.215,0.313
			c0,0.103,0.086,0.189,0.258,0.259c0.336,0.135,0.642,0.362,0.917,0.683c0.283,0.332,0.424,0.748,0.424,1.248
			c0,0.591-0.215,1.13-0.646,1.617c-0.57,0.644-1.412,0.966-2.527,0.966c-0.152,0-0.525-0.011-1.119-0.031
			C7.156,63.27,6.824,63.258,6.701,63.254z M7.125,56.581v1.268c0,0.2,0.025,0.342,0.077,0.424s0.141,0.123,0.268,0.123
			c0.303,0,0.527-0.093,0.67-0.279s0.215-0.479,0.215-0.877c0-0.385-0.074-0.684-0.222-0.895s-0.356-0.316-0.627-0.316
			c-0.144,0-0.243,0.04-0.298,0.119C7.153,56.228,7.125,56.372,7.125,56.581z M7.125,60.124v0.584c0,0.537,0.039,0.894,0.117,1.069
			c0.078,0.177,0.236,0.265,0.474,0.265c0.623,0,0.935-0.364,0.935-1.095c0-0.91-0.349-1.365-1.045-1.365
			c-0.18,0-0.305,0.039-0.375,0.117S7.125,59.919,7.125,60.124z"/>
		<path fill="#161B47" d="M18.421,54.693c1.054,0,1.974,0.302,2.761,0.904c0.533,0.414,0.965,0.951,1.297,1.611
			c0.324,0.655,0.486,1.312,0.486,1.968c0,0.968-0.32,1.832-0.959,2.595c-0.541,0.647-1.248,1.113-2.122,1.396
			c-0.537,0.172-1.076,0.258-1.617,0.258c-0.709,0-1.388-0.147-2.035-0.442c-0.783-0.357-1.396-0.896-1.839-1.617
			c-0.431-0.697-0.646-1.466-0.646-2.307c0-0.976,0.276-1.837,0.83-2.583c0.492-0.664,1.154-1.151,1.986-1.463
			C17.122,54.8,17.741,54.693,18.421,54.693z M17.837,56.458c-0.345,0-0.617,0.154-0.818,0.462
			c-0.156,0.229-0.234,0.502-0.234,0.817c0,0.464,0.094,1,0.283,1.608s0.426,1.148,0.713,1.62c0.127,0.201,0.284,0.361,0.471,0.479
			c0.187,0.119,0.376,0.179,0.569,0.179c0.312,0,0.563-0.117,0.753-0.351c0.191-0.233,0.286-0.541,0.286-0.923
			c0-0.495-0.08-1.03-0.24-1.604c-0.16-0.574-0.367-1.063-0.621-1.47c-0.156-0.25-0.336-0.447-0.541-0.591
			C18.253,56.543,18.046,56.467,17.837,56.458z"/>
		<path fill="#161B47" d="M29.508,54.693c1.054,0,1.974,0.302,2.761,0.904c0.533,0.414,0.965,0.951,1.297,1.611
			c0.324,0.655,0.486,1.312,0.486,1.968c0,0.968-0.32,1.832-0.959,2.595c-0.541,0.647-1.248,1.113-2.122,1.396
			c-0.537,0.172-1.076,0.258-1.617,0.258c-0.709,0-1.388-0.147-2.035-0.442c-0.783-0.357-1.396-0.896-1.839-1.617
			c-0.431-0.697-0.646-1.466-0.646-2.307c0-0.976,0.276-1.837,0.83-2.583c0.492-0.664,1.154-1.151,1.986-1.463
			C28.208,54.8,28.828,54.693,29.508,54.693z M28.924,56.458c-0.345,0-0.617,0.154-0.818,0.462
			c-0.156,0.229-0.234,0.502-0.234,0.817c0,0.464,0.094,1,0.283,1.608s0.426,1.148,0.713,1.62c0.127,0.201,0.284,0.361,0.471,0.479
			c0.187,0.119,0.376,0.179,0.569,0.179c0.312,0,0.563-0.117,0.753-0.351c0.191-0.233,0.286-0.541,0.286-0.923
			c0-0.495-0.08-1.03-0.24-1.604c-0.16-0.574-0.367-1.063-0.621-1.47c-0.156-0.25-0.336-0.447-0.541-0.591
			C29.34,56.543,29.133,56.467,28.924,56.458z"/>
		<path fill="#161B47" d="M42.981,56.545l-0.658,0.633c-0.242,0.229-0.363,0.438-0.363,0.628c0,0.103,0.028,0.204,0.083,0.307
			s0.159,0.242,0.311,0.419l2.3,2.662c0.205,0.238,0.347,0.389,0.424,0.452c0.078,0.063,0.195,0.13,0.351,0.2
			c0.221,0.094,0.378,0.198,0.47,0.313c0.092,0.114,0.139,0.265,0.139,0.449c0,0.435-0.31,0.651-0.929,0.651h-2.331
			c-0.16,0-0.286-0.035-0.378-0.104s-0.239-0.242-0.439-0.517c-0.32-0.438-0.742-0.943-1.267-1.513
			c-0.23-0.246-0.391-0.407-0.483-0.482c-0.092-0.076-0.177-0.114-0.255-0.114c-0.238,0-0.356,0.224-0.356,0.67
			c0,0.365,0.078,0.617,0.233,0.757c0.029,0.021,0.094,0.065,0.197,0.136c0.222,0.144,0.332,0.321,0.332,0.534
			c0,0.271-0.18,0.465-0.541,0.581c-0.361,0.117-0.967,0.176-1.82,0.176c-0.758,0-1.312-0.045-1.66-0.136
			c-0.147-0.041-0.268-0.115-0.36-0.224c-0.092-0.109-0.138-0.231-0.138-0.366c0-0.218,0.123-0.404,0.369-0.56
			c0.111-0.074,0.19-0.155,0.237-0.243c0.047-0.088,0.091-0.236,0.132-0.445c0.082-0.464,0.123-1.177,0.123-2.141
			c0-1.147-0.043-1.962-0.129-2.441c-0.033-0.196-0.078-0.338-0.135-0.424c-0.057-0.086-0.158-0.17-0.301-0.252
			c-0.229-0.132-0.344-0.314-0.344-0.548c0-0.196,0.072-0.354,0.215-0.474c0.144-0.118,0.373-0.209,0.688-0.271
			c0.418-0.082,0.943-0.123,1.574-0.123c0.644,0,1.122,0.062,1.433,0.185c0.279,0.115,0.418,0.32,0.418,0.615
			c0,0.123-0.021,0.218-0.064,0.286c-0.043,0.067-0.155,0.173-0.335,0.316c-0.066,0.058-0.126,0.194-0.182,0.412
			c-0.055,0.217-0.083,0.431-0.083,0.64c0,0.344,0.078,0.517,0.234,0.517c0.094,0,0.185-0.041,0.273-0.123s0.266-0.287,0.532-0.615
			c0.307-0.381,0.461-0.642,0.461-0.781c0-0.073-0.039-0.185-0.117-0.332c-0.053-0.103-0.08-0.196-0.08-0.282
			c0-0.304,0.164-0.518,0.492-0.643c0.328-0.125,0.887-0.188,1.679-0.188c0.631,0,1.099,0.041,1.402,0.123
			c0.373,0.103,0.56,0.319,0.56,0.651c0,0.131-0.039,0.253-0.117,0.366c-0.078,0.112-0.174,0.186-0.289,0.218
			c-0.086,0.029-0.285,0.045-0.597,0.05c-0.217,0.004-0.38,0.029-0.489,0.076C43.293,56.275,43.153,56.381,42.981,56.545z"/>
		<path fill="#161B47" d="M55.82,54.533c0.57,0,1.06,0.114,1.47,0.342s0.615,0.499,0.615,0.814c0,0.181-0.07,0.343-0.212,0.486
			s-0.3,0.215-0.477,0.215c-0.078,0-0.143-0.012-0.194-0.037c-0.051-0.024-0.188-0.112-0.409-0.264
			c-0.193-0.132-0.394-0.197-0.603-0.197c-0.209,0-0.382,0.078-0.52,0.233c-0.137,0.156-0.206,0.351-0.206,0.585
			c0,0.319,0.123,0.545,0.369,0.676c0.065,0.033,0.252,0.07,0.56,0.111c0.25,0.028,0.375,0.198,0.375,0.51
			c0,0.337-0.137,0.585-0.412,0.744c-0.123,0.07-0.351,0.127-0.683,0.173c-0.193,0.028-0.289,0.215-0.289,0.56
			c0,0.409,0.129,0.83,0.387,1.261c0.238,0.389,0.545,0.692,0.922,0.909c0.345,0.201,0.699,0.302,1.064,0.302
			c0.496,0,0.933-0.147,1.31-0.442c0.34-0.267,0.51-0.603,0.51-1.009c0-0.197-0.077-0.366-0.23-0.508
			c-0.154-0.141-0.339-0.212-0.557-0.212c-0.336,0-0.627,0.209-0.874,0.627c-0.106,0.181-0.217,0.271-0.332,0.271
			c-0.147,0-0.274-0.088-0.381-0.262c-0.107-0.174-0.16-0.378-0.16-0.612c0-0.5,0.177-0.946,0.532-1.34
			c0.355-0.394,0.868-0.714,1.541-0.96c0.542-0.2,0.874-0.358,0.997-0.474c0.143-0.131,0.215-0.271,0.215-0.418
			c0-0.082-0.028-0.153-0.086-0.215s-0.125-0.093-0.203-0.093c-0.033,0-0.106,0.022-0.221,0.068
			c-0.024,0.008-0.053,0.012-0.086,0.012c-0.07,0-0.13-0.025-0.182-0.077c-0.051-0.051-0.077-0.113-0.077-0.188
			c0-0.176,0.084-0.342,0.252-0.498c0.152-0.144,0.351-0.258,0.597-0.344s0.494-0.13,0.744-0.13c0.455,0,0.853,0.117,1.192,0.351
			c0.193,0.132,0.345,0.307,0.455,0.526c0.111,0.219,0.166,0.45,0.166,0.691c0,0.356-0.118,0.701-0.356,1.033
			c-0.237,0.332-0.565,0.609-0.984,0.83c-0.299,0.164-0.449,0.306-0.449,0.425c0,0.086,0.101,0.19,0.301,0.313
			c0.185,0.114,0.331,0.271,0.44,0.471c0.108,0.198,0.163,0.413,0.163,0.643c0,0.385-0.148,0.778-0.443,1.181
			c-0.439,0.603-1.105,1.067-1.999,1.396c-0.742,0.274-1.578,0.412-2.509,0.412c-1.226,0-2.273-0.228-3.142-0.683
			c-0.627-0.324-1.113-0.797-1.458-1.421c-0.226-0.405-0.338-0.838-0.338-1.297c0-0.496,0.162-0.921,0.486-1.273
			c0.193-0.213,0.396-0.373,0.609-0.479c0.151-0.078,0.228-0.153,0.228-0.228c0-0.037-0.021-0.09-0.062-0.16
			c-0.25-0.43-0.375-0.795-0.375-1.094c0-0.304,0.087-0.604,0.261-0.901s0.409-0.546,0.704-0.747
			c0.274-0.185,0.596-0.332,0.965-0.442C55.113,54.589,55.471,54.533,55.82,54.533z"/>
		<path fill="#161B47" d="M73.357,54.693c0.598,0,1.176,0.132,1.734,0.394c0.262,0.123,0.443,0.185,0.547,0.185
			c0.074,0,0.193-0.019,0.357-0.056c0.053-0.012,0.111-0.018,0.178-0.018c0.213,0,0.4,0.098,0.559,0.295
			c0.395,0.476,0.592,1.065,0.592,1.771c0,0.496-0.17,0.859-0.512,1.089c-0.184,0.123-0.391,0.185-0.621,0.185
			c-0.209,0-0.379-0.045-0.51-0.136c-0.131-0.09-0.258-0.25-0.381-0.479c-0.176-0.323-0.32-0.557-0.432-0.698
			c-0.109-0.141-0.246-0.27-0.404-0.384c-0.398-0.279-0.814-0.418-1.25-0.418c-0.422,0-0.756,0.152-1.004,0.458
			s-0.373,0.714-0.373,1.227c0,0.705,0.178,1.351,0.535,1.938c0.484,0.783,1.178,1.174,2.078,1.174c0.332,0,0.662-0.055,0.988-0.166
			c0.326-0.11,0.578-0.254,0.758-0.43c0.156-0.148,0.283-0.222,0.383-0.222c0.143,0,0.266,0.066,0.369,0.2
			c0.102,0.133,0.152,0.294,0.152,0.482c0,0.237-0.07,0.504-0.215,0.799c-0.143,0.296-0.316,0.527-0.516,0.695
			c-0.086,0.069-0.266,0.131-0.535,0.185c-0.156,0.028-0.363,0.104-0.621,0.228c-0.607,0.291-1.238,0.437-1.895,0.437
			c-0.686,0-1.367-0.153-2.047-0.461c-0.793-0.356-1.418-0.904-1.877-1.643c-0.451-0.717-0.676-1.467-0.676-2.25
			c0-0.91,0.283-1.74,0.848-2.491c0.492-0.651,1.135-1.149,1.926-1.494C72.096,54.825,72.717,54.693,73.357,54.693z"/>
		<path fill="#161B47" d="M83.041,59.729c-0.154,0-0.254,0.048-0.297,0.142c-0.043,0.095-0.064,0.313-0.064,0.658
			c0,0.521,0.031,0.927,0.098,1.218c0.02,0.082,0.051,0.146,0.092,0.19s0.119,0.101,0.234,0.166
			c0.246,0.136,0.369,0.313,0.369,0.535c0,0.271-0.172,0.462-0.514,0.575c-0.342,0.112-0.922,0.169-1.738,0.169
			c-1.516,0-2.275-0.287-2.275-0.861c0-0.098,0.023-0.177,0.068-0.236s0.148-0.143,0.307-0.249c0.182-0.119,0.303-0.26,0.367-0.421
			c0.063-0.162,0.107-0.442,0.131-0.84c0.021-0.291,0.031-1.334,0.031-3.13c0-0.57-0.027-0.957-0.086-1.162
			c-0.057-0.205-0.18-0.354-0.369-0.449c-0.18-0.086-0.301-0.165-0.363-0.236c-0.061-0.072-0.092-0.165-0.092-0.28
			c0-0.151,0.059-0.284,0.176-0.396c0.117-0.113,0.279-0.196,0.488-0.249c0.178-0.045,0.418-0.067,0.727-0.067
			c0.135,0,0.473,0.021,1.014,0.062c0.104,0.008,0.266,0.012,0.486,0.012c0.369,0,0.861-0.024,1.477-0.073
			c0.389-0.029,0.662-0.044,0.816-0.044c0.879,0,1.604,0.212,2.178,0.634c0.518,0.381,0.775,0.91,0.775,1.587
			c0,0.377-0.09,0.721-0.271,1.029c-0.18,0.31-0.428,0.543-0.744,0.698c-0.131,0.065-0.197,0.144-0.197,0.233
			c0,0.119,0.102,0.216,0.303,0.289c0.43,0.156,0.746,0.392,0.947,0.708c0.199,0.315,0.344,0.799,0.43,1.451
			c0.037,0.271,0.09,0.445,0.16,0.525s0.23,0.157,0.486,0.23c0.076,0.024,0.143,0.077,0.195,0.157c0.055,0.08,0.08,0.169,0.08,0.268
			c0,0.127-0.049,0.255-0.146,0.384c-0.1,0.13-0.227,0.23-0.381,0.305c-0.346,0.16-0.816,0.24-1.416,0.24
			c-0.799,0-1.371-0.212-1.715-0.634c-0.156-0.188-0.289-0.427-0.396-0.713c-0.109-0.287-0.236-0.734-0.385-1.341
			c-0.094-0.39-0.215-0.664-0.359-0.824C83.52,59.828,83.313,59.742,83.041,59.729z M82.686,56.594l-0.068,1.433
			c0,0.013,0,0.031,0,0.056c0,0.147,0.021,0.246,0.064,0.295c0.043,0.05,0.131,0.074,0.262,0.074c0.361,0,0.623-0.094,0.787-0.28
			s0.246-0.484,0.246-0.895c0-0.791-0.281-1.187-0.842-1.187c-0.16,0-0.273,0.036-0.34,0.11
			C82.73,56.274,82.693,56.405,82.686,56.594z"/>
		<path fill="#161B47" d="M98.027,59.011l1.162,2.49c0.111,0.229,0.203,0.38,0.277,0.452c0.074,0.071,0.186,0.12,0.338,0.145
			c0.295,0.045,0.443,0.194,0.443,0.449c0,0.299-0.182,0.514-0.541,0.646c-0.361,0.131-0.951,0.196-1.771,0.196
			c-0.928,0-1.613-0.039-2.061-0.116c-0.205-0.037-0.367-0.112-0.488-0.225c-0.121-0.113-0.182-0.249-0.182-0.409
			c0-0.123,0.031-0.219,0.096-0.286c0.063-0.067,0.182-0.13,0.354-0.188c0.191-0.065,0.289-0.176,0.289-0.332
			c0-0.274-0.166-0.437-0.498-0.485c-0.357-0.05-0.859-0.074-1.508-0.074c-0.545,0-0.871,0.033-0.977,0.099
			c-0.066,0.041-0.123,0.114-0.172,0.222c-0.051,0.106-0.074,0.209-0.074,0.307c0,0.091,0.018,0.149,0.053,0.176
			c0.033,0.026,0.148,0.07,0.34,0.132c0.25,0.074,0.375,0.222,0.375,0.443c0,0.487-0.584,0.731-1.752,0.731
			c-0.664,0-1.152-0.045-1.463-0.136c-0.287-0.086-0.432-0.274-0.432-0.565c0-0.127,0.031-0.226,0.096-0.295
			c0.064-0.07,0.178-0.134,0.342-0.19c0.266-0.095,0.469-0.227,0.605-0.397c0.137-0.17,0.332-0.533,0.588-1.091l0.867-1.9
			c0.318-0.697,0.533-1.219,0.643-1.565c0.107-0.346,0.164-0.686,0.168-1.018c0.004-0.353,0.025-0.598,0.064-0.734
			c0.039-0.138,0.127-0.271,0.262-0.403c0.283-0.287,0.645-0.431,1.082-0.431c0.414,0,0.811,0.162,1.188,0.486
			C96.264,55.585,97.027,56.875,98.027,59.011z M93.748,59.785h1.205c0.221,0,0.332-0.049,0.332-0.147
			c0-0.135-0.154-0.468-0.461-0.996c-0.141-0.242-0.246-0.404-0.32-0.486c-0.074-0.081-0.152-0.122-0.234-0.122
			c-0.146,0-0.27,0.137-0.369,0.411c-0.016,0.037-0.074,0.183-0.178,0.438c-0.172,0.418-0.258,0.668-0.258,0.75
			C93.465,59.734,93.559,59.785,93.748,59.785z"/>
		<path fill="#161B47" d="M106.285,56.133c-0.283,0-0.457,0.071-0.523,0.215c-0.049,0.106-0.094,0.315-0.137,0.627
			c-0.043,0.313-0.064,0.595-0.064,0.849c0,0.152,0.049,0.257,0.146,0.314c0.098,0.057,0.283,0.086,0.553,0.086
			c0.182,0,0.314-0.033,0.4-0.099s0.146-0.176,0.178-0.332c0.096-0.447,0.287-0.67,0.578-0.67c0.5,0,0.752,0.599,0.752,1.795
			c0,0.759-0.109,1.316-0.326,1.673c-0.133,0.218-0.313,0.326-0.541,0.326c-0.242,0-0.383-0.162-0.42-0.486
			c-0.02-0.209-0.045-0.356-0.076-0.442s-0.09-0.168-0.176-0.246c-0.135-0.127-0.332-0.19-0.59-0.19
			c-0.184,0-0.309,0.033-0.375,0.099s-0.094,0.19-0.086,0.375c0,0.032-0.002,0.224-0.006,0.571c0,0.71,0.074,1.143,0.221,1.298
			c0.049,0.062,0.1,0.102,0.15,0.12c0.053,0.019,0.186,0.044,0.404,0.077c0.105,0.016,0.195,0.071,0.27,0.166
			c0.074,0.094,0.111,0.202,0.111,0.325c0,0.316-0.186,0.519-0.555,0.609c-0.533,0.127-1.281,0.19-2.244,0.19
			c-0.844,0-1.426-0.049-1.746-0.147c-0.145-0.045-0.26-0.127-0.35-0.246c-0.092-0.119-0.137-0.25-0.137-0.394
			c0-0.181,0.066-0.326,0.197-0.437c0.033-0.024,0.145-0.076,0.338-0.154c0.23-0.09,0.367-0.299,0.412-0.627
			c0.074-0.504,0.111-1.654,0.111-3.45c0-0.774-0.027-1.276-0.08-1.506s-0.184-0.39-0.387-0.479c-0.205-0.091-0.34-0.17-0.404-0.237
			c-0.063-0.067-0.096-0.165-0.096-0.292c0-0.181,0.09-0.331,0.266-0.452s0.393-0.182,0.652-0.182c0.164,0,0.402,0.013,0.719,0.037
			c0.668,0.054,1.467,0.08,2.398,0.08c1.488,0,2.49-0.041,3.008-0.123c0.068-0.008,0.123-0.013,0.158-0.013
			c0.145,0,0.281,0.083,0.412,0.246c0.361,0.46,0.541,0.968,0.541,1.525c0,0.254-0.059,0.457-0.178,0.608
			c-0.119,0.152-0.275,0.228-0.467,0.228c-0.145,0-0.252-0.028-0.326-0.086c-0.074-0.057-0.262-0.258-0.566-0.603
			c-0.184-0.213-0.406-0.353-0.666-0.418C107.479,56.196,106.994,56.153,106.285,56.133z"/>
		<path fill="#161B47" d="M114.014,54.866h3.24c0.35-0.013,0.666-0.06,0.953-0.142c0.123-0.033,0.232-0.05,0.326-0.05
			c0.332,0,0.656,0.246,0.969,0.738c0.314,0.492,0.471,0.998,0.471,1.519c0,0.357-0.109,0.617-0.326,0.781
			c-0.164,0.123-0.361,0.185-0.59,0.185c-0.217,0-0.406-0.061-0.566-0.182s-0.316-0.32-0.473-0.6
			c-0.135-0.254-0.242-0.42-0.32-0.498s-0.172-0.116-0.283-0.116c-0.15,0-0.26,0.063-0.326,0.19
			c-0.064,0.127-0.098,0.336-0.098,0.627v3.443c0,0.353,0.037,0.609,0.111,0.77c0.072,0.159,0.213,0.282,0.418,0.368
			c0.221,0.095,0.371,0.184,0.451,0.268s0.121,0.2,0.121,0.348c0,0.295-0.201,0.515-0.6,0.658c-0.4,0.144-1.014,0.215-1.842,0.215
			c-1.018,0-1.771-0.084-2.264-0.252c-0.414-0.14-0.621-0.365-0.621-0.677c0-0.168,0.074-0.299,0.221-0.394
			c0.037-0.021,0.184-0.069,0.438-0.147c0.156-0.045,0.264-0.131,0.322-0.258c0.061-0.127,0.107-0.371,0.145-0.732
			c0.033-0.319,0.064-0.837,0.092-1.553c0.029-0.715,0.043-1.335,0.043-1.859c0-0.369-0.027-0.632-0.086-0.787
			c-0.057-0.156-0.15-0.234-0.283-0.234c-0.158,0-0.314,0.115-0.467,0.345c-0.273,0.418-0.5,0.694-0.676,0.83
			c-0.209,0.16-0.412,0.24-0.609,0.24c-0.221,0-0.404-0.083-0.547-0.249c-0.145-0.166-0.215-0.379-0.215-0.637
			c0-0.254,0.057-0.534,0.172-0.84c0.115-0.305,0.268-0.587,0.461-0.846c0.313-0.418,0.619-0.627,0.922-0.627
			c0.082,0,0.178,0.013,0.283,0.037c0.223,0.045,0.402,0.076,0.545,0.092C113.666,54.857,113.83,54.866,114.014,54.866z"/>
		<path fill="#161B47" d="M125.225,54.693c0.422,0,0.975,0.104,1.66,0.313c0.082,0.025,0.148,0.037,0.197,0.037
			c0.041,0,0.164-0.037,0.369-0.11c0.064-0.024,0.135-0.037,0.209-0.037c0.273,0,0.564,0.218,0.869,0.652
			c0.307,0.435,0.459,0.848,0.459,1.242c0,0.229-0.068,0.423-0.207,0.581c-0.137,0.157-0.305,0.236-0.5,0.236
			c-0.164,0-0.297-0.033-0.4-0.099c-0.102-0.065-0.328-0.26-0.676-0.584c-0.492-0.459-0.977-0.688-1.451-0.688
			c-0.23,0-0.414,0.055-0.551,0.166c-0.137,0.11-0.207,0.256-0.207,0.437c0,0.356,0.314,0.625,0.941,0.806
			c0.85,0.25,1.393,0.433,1.629,0.547c1.047,0.509,1.568,1.257,1.568,2.245c0,0.873-0.355,1.586-1.068,2.14
			c-0.73,0.565-1.684,0.849-2.861,0.849c-0.523,0-1.078-0.063-1.66-0.188s-1.002-0.271-1.26-0.439
			c-0.197-0.132-0.375-0.417-0.531-0.858c-0.158-0.44-0.238-0.87-0.238-1.288c0-0.201,0.041-0.353,0.123-0.455
			c0.104-0.131,0.232-0.196,0.389-0.196c0.154,0,0.305,0.079,0.449,0.239c0.086,0.091,0.287,0.38,0.607,0.867
			c0.152,0.229,0.393,0.42,0.723,0.572c0.33,0.151,0.672,0.228,1.023,0.228c0.305,0,0.551-0.057,0.738-0.17
			c0.189-0.112,0.283-0.257,0.283-0.433c0-0.164-0.074-0.306-0.221-0.425c-0.148-0.119-0.389-0.229-0.721-0.332
			c-0.586-0.185-1.033-0.354-1.34-0.508c-0.307-0.153-0.594-0.347-0.861-0.581c-0.648-0.573-0.971-1.226-0.971-1.955
			c0-0.36,0.084-0.712,0.252-1.055c0.168-0.342,0.406-0.639,0.713-0.889C123.393,54.982,124.232,54.693,125.225,54.693z"/>
	</g>
</g>
</svg>
