<?xml version="1.0" encoding="utf-8"?>
<!-- Generator: Adobe Illustrator 16.0.0, SVG Export Plug-In . SVG Version: 6.00 Build 0)  -->
<!DOCTYPE svg PUBLIC "-//W3C//DTD SVG 1.1//EN" "http://www.w3.org/Graphics/SVG/1.1/DTD/svg11.dtd">
<svg version="1.1" xmlns="http://www.w3.org/2000/svg" xmlns:xlink="http://www.w3.org/1999/xlink" x="0px" y="0px" width="130px"
	 height="62px" viewBox="0 0 130 62" enable-background="new 0 0 130 62" xml:space="preserve">
<g id="Layer_1">
</g>
<g id="Layer_2">
	<circle fill="#006838" cx="19.521" cy="31.803" r="18.31"/>
	<g>
		<path fill="#ED1C24" stroke="#F1F2F2" stroke-width="1.5" stroke-miterlimit="10" d="M31.546,42.726
			c0,0.206-0.143,0.35-0.429,0.43c-0.343,0.093-1.408,0.137-3.193,0.137c-1.637,0-2.69-0.044-3.159-0.137
			c-0.389-0.08-0.635-0.336-0.738-0.772c-0.389-1.646-0.693-2.529-0.91-2.643c-0.184-0.081-1.717-0.12-4.601-0.12
			c-1.945,0-2.981,0.052-3.107,0.154c-0.195,0.184-0.412,0.794-0.652,1.836c-0.217,0.95-0.481,1.465-0.791,1.545
			c-0.389,0.093-1.693,0.137-3.914,0.137c-1.751,0-2.626-0.165-2.626-0.497c0-0.297,1.293-3.954,3.879-10.969
			c2.803-7.587,4.327-11.759,4.567-12.514c0.137-0.435,0.297-0.652,0.48-0.652c0.309,0,0.787,0.028,1.433,0.085
			c0.647,0.058,1.13,0.086,1.451,0.086c0.309,0,0.764-0.02,1.364-0.06c0.601-0.04,1.05-0.061,1.348-0.061
			c0.218,0,0.417,0.188,0.601,0.566c0.561,1.203,2.197,5.321,4.91,12.36C30.184,38.722,31.546,42.418,31.546,42.726z M19.375,27.089
			c-0.24,0.503-0.647,1.596-1.219,3.277c-0.618,1.786-0.927,2.833-0.927,3.143c0,0.205,0.343,0.32,1.03,0.343
			c0.354,0.023,0.938,0.034,1.75,0.034c0.756,0,1.174-0.092,1.253-0.274c0.022-0.058,0.035-0.138,0.035-0.241
			c0-0.377-0.264-1.418-0.79-3.123C19.994,28.6,19.616,27.547,19.375,27.089z"/>
	</g>
	<circle fill="#006838" cx="64.999" cy="25.7" r="24.414"/>
	<g>
		<path fill="#ED1C24" stroke="#F1F2F2" stroke-width="1.5" stroke-miterlimit="10" d="M79.72,16.488
			c0,0.374-0.205,0.561-0.614,0.561c-0.712,0-3.522-0.14-8.433-0.42c-0.112,4.725-0.167,8.022-0.167,9.888
			c0,2.204,0.087,5.52,0.264,9.944c0.178,4.427,0.267,7.741,0.267,9.946c0,0.354-0.084,0.578-0.251,0.671
			c-0.057,0.039-0.318,0.085-0.785,0.14c-1.121,0.151-2.765,0.227-4.931,0.227c-2.409,0-4.099-0.075-5.07-0.227
			c-0.523-0.093-0.784-0.382-0.784-0.867c0-2.202,0.093-5.51,0.28-9.917c0.187-4.406,0.28-7.713,0.28-9.917
			c0-1.456-0.075-4.706-0.225-9.748c-3.735,0.373-6.714,0.561-8.936,0.561c-0.299,0-0.449-0.094-0.449-0.28
			c0-0.243,0.131-0.962,0.392-2.157c0.299-1.307,0.467-2.101,0.505-2.381c0.056-0.877,0.121-1.755,0.195-2.633
			c0.131-1.4,0.355-2.102,0.672-2.102c0.038,0,0.168,0.01,0.393,0.028c3.025,0.393,7.498,0.588,13.418,0.588
			c1.681,0,4.781-0.177,9.302-0.532c2.426-0.186,3.65-0.28,3.668-0.28c0.373,0,0.588,0.024,0.645,0.07
			c0.057,0.046,0.094,0.228,0.112,0.546c0,0.504-0.019,1.204-0.056,2.101c-0.038,0.99-0.057,1.69-0.057,2.101
			c0,0.466,0.061,1.153,0.183,2.058C79.661,15.363,79.72,16.04,79.72,16.488z"/>
	</g>
	<circle fill="#006838" cx="110.478" cy="31.803" r="18.311"/>
	<g>
		<path fill="#ED1C24" stroke="#F1F2F2" stroke-width="1.5" stroke-miterlimit="10" d="M121.944,19.673
			c0,1.305-0.054,3.265-0.162,5.88c-0.109,2.613-0.165,4.58-0.165,5.896v11.313c0,0.309-0.165,0.463-0.497,0.463
			c-0.274,0-0.69,0.013-1.244,0.035c-0.556,0.021-0.971,0.033-1.245,0.033c-0.298,0-0.744-0.022-1.339-0.068
			c-0.595-0.045-1.042-0.068-1.339-0.068c-0.206,0-0.452-0.188-0.737-0.566c-0.824-1.11-2.679-3.569-5.563-7.381
			c-0.788-1.064-1.989-2.633-3.603-4.704c-0.047-0.068-0.132-0.138-0.258-0.206c-0.092,0.081-0.138,0.206-0.138,0.378
			c0,1.328,0.037,3.318,0.111,5.974s0.11,4.647,0.11,5.975c0,0.4-0.153,0.6-0.461,0.6h-5.94c-0.333,0-0.497-0.176-0.497-0.531
			c0-1.236,0.058-3.102,0.179-5.596c0.121-2.495,0.182-4.366,0.182-5.614c0-1.315-0.056-3.284-0.165-5.905
			c-0.107-2.62-0.162-4.583-0.162-5.887c0-0.251,0.223-0.378,0.67-0.378c0.662,0,1.481-0.045,2.454-0.138
			c0.229-0.022,0.68-0.096,1.355-0.223c0.572-0.103,1.025-0.154,1.357-0.154c0.137,0,0.348,0.194,0.635,0.583l6.402,8.772
			c0.571,0.79,1.437,1.946,2.593,3.468c0.285,0.354,0.532,0.532,0.738,0.532c0.148,0,0.224-0.445,0.224-1.339
			c0-1.201-0.067-3.01-0.198-5.425c-0.132-2.414-0.198-4.228-0.198-5.442c0-0.423,0.121-0.635,0.36-0.635
			c0.687,0,1.723-0.029,3.108-0.085c1.384-0.058,2.42-0.086,3.105-0.086C121.835,19.14,121.944,19.317,121.944,19.673z"/>
	</g>
	<text transform="matrix(1 0 0 1 6.0674 61.5)" fill="#161B47" font-family="'CooperBlack'" font-size="12.7577">BOOK &amp; CRAFTS</text>
</g>
</svg>
